<?xml version="1.0" encoding="UTF-8" standalone="no"?>
<!-- Created with Inkscape (http://www.inkscape.org/) -->
<svg
   xmlns:dc="http://purl.org/dc/elements/1.1/"
   xmlns:cc="http://creativecommons.org/ns#"
   xmlns:rdf="http://www.w3.org/1999/02/22-rdf-syntax-ns#"
   xmlns:svg="http://www.w3.org/2000/svg"
   xmlns="http://www.w3.org/2000/svg"
   xmlns:xlink="http://www.w3.org/1999/xlink"
   xmlns:sodipodi="http://sodipodi.sourceforge.net/DTD/sodipodi-0.dtd"
   xmlns:inkscape="http://www.inkscape.org/namespaces/inkscape"
   width="679.25928"
   height="408"
   id="svg2"
   sodipodi:version="0.32"
   inkscape:version="0.46"
   version="1.0"
   sodipodi:docname="edit_example.svg"
   inkscape:output_extension="org.inkscape.output.svg.inkscape"
   inkscape:export-filename="/home/Chicken1/preshack/dist/gp_siggraph/edit_example.png"
   inkscape:export-xdpi="99.926468"
   inkscape:export-ydpi="99.926468">
  <defs
     id="defs4">
    <linearGradient
       id="linearGradient3249">
      <stop
         style="stop-color:#ffffff;stop-opacity:0.46938777;"
         offset="0"
         id="stop3251" />
      <stop
         id="stop3257"
         offset="0.5"
         style="stop-color:#8a8a8a;stop-opacity:1;" />
      <stop
         style="stop-color:#000000;stop-opacity:0.23469388;"
         offset="1"
         id="stop3253" />
    </linearGradient>
    <inkscape:perspective
       sodipodi:type="inkscape:persp3d"
       inkscape:vp_x="0 : 526.18109 : 1"
       inkscape:vp_y="0 : 1000 : 0"
       inkscape:vp_z="744.09448 : 526.18109 : 1"
       inkscape:persp3d-origin="372.04724 : 350.78739 : 1"
       id="perspective10" />
    <inkscape:perspective
       id="perspective2444"
       inkscape:persp3d-origin="372.04724 : 350.78739 : 1"
       inkscape:vp_z="744.09448 : 526.18109 : 1"
       inkscape:vp_y="0 : 1000 : 0"
       inkscape:vp_x="0 : 526.18109 : 1"
       sodipodi:type="inkscape:persp3d" />
    <linearGradient
       inkscape:collect="always"
       xlink:href="#linearGradient3249"
       id="linearGradient3255"
       x1="-19.1929"
       y1="511.58066"
       x2="18.657572"
       y2="425.81631"
       gradientUnits="userSpaceOnUse"
       gradientTransform="matrix(0.9536703,-0.3008537,0.3008537,0.9536703,-155.93322,48.772217)" />
  </defs>
  <sodipodi:namedview
     id="base"
     pagecolor="#ffffff"
     bordercolor="#666666"
     borderopacity="1.0"
     gridtolerance="10000"
     guidetolerance="10"
     objecttolerance="10"
     inkscape:pageopacity="0.0"
     inkscape:pageshadow="2"
     inkscape:zoom="0.7"
     inkscape:cx="475.83372"
     inkscape:cy="205.14478"
     inkscape:document-units="px"
     inkscape:current-layer="layer1"
     showgrid="false"
     inkscape:window-width="811"
     inkscape:window-height="676"
     inkscape:window-x="476"
     inkscape:window-y="69" />
  <metadata
     id="metadata7">
    <rdf:RDF>
      <cc:Work
         rdf:about="">
        <dc:format>image/svg+xml</dc:format>
        <dc:type
           rdf:resource="http://purl.org/dc/dcmitype/StillImage" />
      </cc:Work>
    </rdf:RDF>
  </metadata>
  <g
     inkscape:label="Layer 1"
     inkscape:groupmode="layer"
     id="layer1"
     transform="translate(-141.85715,-202.6479)">
    <image
       y="202.6479"
       x="141.85715"
       id="image2446"
       height="408"
       width="392"
       sodipodi:absref="/home/Chicken1/preshack/dist/gp_siggraph/edit_sel.png"
       xlink:href="edit_sel.png" />
    <path
       style="fill:#b4c40d;fill-opacity:0.82727272;fill-rule:nonzero;stroke:#f2f400;stroke-width:3;stroke-linecap:butt;stroke-linejoin:miter;marker:none;marker-start:none;marker-mid:none;marker-end:none;stroke-miterlimit:4;stroke-dashoffset:0;stroke-opacity:1;visibility:visible;display:inline;overflow:visible;enable-background:accumulate"
       d="M 434.28571,229.50504 L 701.42856,229.50504 L 701.42856,326.6479 L 490.71428,326.6479 L 390,393.79076 L 434.28571,287.36219 L 434.28571,229.50504 z"
       id="rect2450"
       sodipodi:nodetypes="ccccccc" />
    <text
       xml:space="preserve"
       style="font-size:51.0834198px;font-style:normal;font-variant:normal;font-weight:normal;font-stretch:normal;fill:#000000;fill-opacity:1;stroke:none;stroke-width:1px;stroke-linecap:butt;stroke-linejoin:miter;stroke-opacity:1;font-family:Gentium;-inkscape-font-specification:Gentium"
       x="449.72946"
       y="297.71823"
       id="text2453"><tspan
         sodipodi:role="line"
         x="449.72946"
         y="297.71823"
         id="tspan2457">Fixed color.</tspan></text>
    <g
       id="g3259"
       transform="matrix(0.8000066,0,0,0.8000066,359.41281,121.50565)">
      <path
         style="fill:#ff0004;fill-opacity:1;fill-rule:evenodd;stroke:#ffffff;stroke-width:6.2499485;stroke-linecap:butt;stroke-linejoin:miter;stroke-miterlimit:4;stroke-dasharray:none;stroke-opacity:0.47272728"
         d="M 47.142857,306.6479 C 46.318362,313.93359 49.622356,327.61682 51.428571,336.6479 C 54.078021,349.89514 57.908569,358.94503 61.428571,369.50504 C 63.717715,376.37247 67.117849,380.83358 68.571429,386.6479 C 70.066974,392.63008 71.428571,397.65676 71.428571,405.21933 C 71.428571,410.54431 76.111106,416.8066 77.142857,420.93361 C 78.480899,426.28578 81.927837,431.93214 84.285714,436.6479 C 88.180047,444.43656 84.709472,447.86459 92.857143,443.79075 C 102.12966,439.1545 101.74396,437.4457 104.28571,432.36218 C 105.26654,430.40052 86.758012,409.39423 85.714286,405.21933 C 83.654475,396.98008 79.758374,390.32955 77.142857,383.79075 C 73.357063,374.32627 74.659749,361.37521 72.857143,352.36218 C 71.246074,344.30684 68.571429,337.88515 68.571429,328.07647 C 68.571429,320.12849 69.748896,314.79517 71.428571,308.07647 C 72.635046,303.25057 49.287424,306.21898 47.142857,306.6479 z"
         id="path3276" />
      <path
         id="path3247"
         d="M 75.506717,510.44195 C 71.679885,512.5642 68.105719,510.61672 64.35365,508.66426 C 60.649442,506.7367 58.275617,506.57861 53.200585,506.88658 C 47.854742,507.21099 47.453931,512.45041 45.0866,514.74242 C 41.463387,518.25037 40.748024,519.66923 35.09754,520.01212 C 30.531069,520.28923 29.348485,517.58887 23.28503,519.5017 C 19.910827,520.56616 18.776864,514.56853 12.791408,516.45676 C 7.5216558,518.1192 6.3008448,520.85444 3.4101628,523.65315 C -0.50962623,527.44824 -5.1410672,521.61898 -7.0834572,520.60822 C -10.817996,518.66487 -15.529948,521.15437 -20.214857,522.63231 C -26.179326,524.51392 -27.208513,525.75665 -30.811734,525.9753 C -34.349419,526.18998 -37.347395,524.85942 -43.28369,526.73214 C -48.100451,528.25168 -52.917214,529.77122 -57.733977,531.29076 C -58.58526,531.55932 -64.423215,526.78772 -67.568151,526.97857 C -72.633228,527.28593 -77.183309,530.01653 -81.358996,530.26992 C -88.746767,530.71824 -88.498761,534.49868 -91.19317,525.95773 C -92.467984,521.91672 -91.606806,517.93131 -93.217273,512.82632 C -94.949893,507.33412 -96.63598,501.53232 -97.116451,497.10877 C -97.664811,492.06017 -96.645663,488.68787 -96.909937,484.33291 C -97.204053,479.4862 -96.09292,477.57279 -96.399518,472.5204 C -96.658497,468.25268 -94.811041,464.82569 -93.354575,462.02678 C -91.705964,458.85863 -90.690983,455.36076 -89.042372,452.19261 C -87.393761,449.02446 -86.378781,445.52658 -84.73017,442.35843 C -81.106982,435.39572 -80.71805,441.64589 -78.749402,447.88627 C -77.536911,451.72972 -72.12275,453.05959 -69.57467,453.46573 C -65.147356,454.1714 -62.685003,457.3345 -60.09603,460.00854 C -56.435956,463.78889 -54.878933,467.10215 -52.291816,471.31649 C -50.148155,474.80845 -46.707831,476.32362 -43.11708,476.89596 C -38.697942,477.60032 -32.331671,474.55272 -27.399534,472.99678 C -21.61883,471.17315 -20.243311,475.19249 -17.261449,478.27234 C -14.0246,481.61555 -11.383443,482.13628 -8.0867172,483.8518 C -3.9628822,485.99772 -1.0846322,484.82054 4.3852388,483.09496 C 9.2630498,481.55616 12.102139,485.22031 14.219413,487.40716 C 17.395859,490.68798 18.738202,492.04192 24.053591,491.71936 C 30.169392,491.34823 34.585145,490.51544 41.0384,488.47963 C 44.519122,487.38157 48.362168,491.48549 50.872575,492.79183 C 54.476469,494.66719 58.613041,494.02558 62.025643,494.56951 C 67.216551,495.39689 69.730306,492.94233 73.838153,495.07994 C 78.410546,497.45927 78.093027,499.87522 83.012886,500.6594 C 86.381656,501.19635 94.321886,497.51864 96.803726,497.36803 C 101.00609,497.11303 92.763446,504.99798 89.957006,505.88333 C 83.107286,508.0442 82.611156,512.14165 75.506717,510.44195 z"
         style="fill:url(#linearGradient3255);fill-opacity:1;fill-rule:evenodd;stroke:none;stroke-width:1px;stroke-linecap:butt;stroke-linejoin:miter;stroke-opacity:1" />
      <path
         id="path2461"
         d="M 47.142857,306.6479 C 46.318362,313.93359 49.622356,327.61682 51.428571,336.6479 C 54.078021,349.89514 57.908569,358.94503 61.428571,369.50504 C 63.717715,376.37247 67.117849,380.83358 68.571429,386.6479 C 70.066974,392.63008 71.428571,397.65676 71.428571,405.21933 C 71.428571,410.54431 76.111106,416.8066 77.142857,420.93361 C 78.480899,426.28578 81.927837,431.93214 84.285714,436.6479 C 88.180047,444.43656 84.709472,447.86459 92.857143,443.79075 C 102.12966,439.1545 101.74396,437.4457 104.28571,432.36218 C 105.26654,430.40052 86.758012,409.39423 85.714286,405.21933 C 83.654475,396.98008 79.758374,390.32955 77.142857,383.79075 C 73.357063,374.32627 74.659749,361.37521 72.857143,352.36218 C 71.246074,344.30684 68.571429,337.88515 68.571429,328.07647 C 68.571429,320.12849 69.748896,314.79517 71.428571,308.07647 C 72.635046,303.25057 49.287424,306.21898 47.142857,306.6479 z"
         style="fill:#ff0004;fill-opacity:1;fill-rule:evenodd;stroke:#000000;stroke-width:1.24998975;stroke-linecap:butt;stroke-linejoin:miter;stroke-miterlimit:4;stroke-dasharray:none;stroke-opacity:1" />
      <path
         id="path2463"
         d="M 108.57143,433.79075 C 108.94977,432.2774 121.7883,444.51022 122.85714,446.6479 C 125.15788,451.24936 124.28571,461.11703 124.28571,463.79075 C 124.28571,467.43017 132.88004,469.59662 134.28571,475.21933 C 136.13179,482.60364 133.14682,490.35425 131.42857,493.79075 C 128.10036,500.44717 127.49209,502.01295 122.85714,506.6479 C 119.20496,510.30008 109.7537,509.50504 104.28571,509.50504 C 97.264622,509.50504 89.223416,509.31089 84.285714,508.07647 C 71.414137,504.85857 77.867776,505.26186 77.142857,502.36218 C 76.768164,500.86341 93.796393,498.55594 95.714286,498.07647 C 101.96278,496.51435 106.17867,494.75494 110,490.93361 C 115.5551,485.37851 117.6189,484.62405 108.57143,482.36218 C 101.72217,480.64987 97.4251,478.93188 92.857143,476.6479 C 86.914238,473.67644 84.620245,472.27173 82.857143,465.21933 C 80.81421,457.04759 82.752971,455.60251 90,453.79075 C 93.762982,452.85001 99.259076,445.96025 101.42857,443.79075 C 105.93222,439.2871 104.85117,443.0914 108.57143,433.79075 z"
         style="fill:#bcab35;fill-opacity:1;fill-rule:evenodd;stroke:#000000;stroke-width:1px;stroke-linecap:butt;stroke-linejoin:miter;stroke-opacity:1" />
      <path
         id="path2465"
         d="M 91.428571,459.50504 C 95.74066,455.19295 99.79815,469.45458 105.71429,470.93361 C 113.04967,472.76746 115.67021,473.74668 120,478.07647 C 126.33983,484.4163 117.66499,490.41148 115.71429,492.36218 C 112.76232,495.31415 105.84978,498.39974 101.42857,499.50504 C 92.64633,501.7006 102.99674,496.5083 105.71429,493.79075 C 109.7887,489.71634 112.08974,485.32556 114.28571,480.93361 C 117.08675,475.33154 101.79059,479.59554 95.714286,478.07647 C 91.130892,476.93062 86.839731,470.63049 84.285714,468.07647 C 79.222046,463.0128 82.613374,461.26808 91.428571,459.50504 z"
         style="fill:#000000;fill-opacity:0.5;fill-rule:evenodd;stroke:none;stroke-width:1px;stroke-linecap:butt;stroke-linejoin:miter;stroke-opacity:1" />
      <path
         id="path2467"
         d="M 110,442.36218 C 105.09732,437.4595 115.71429,455.42874 115.71429,462.36218 C 115.71429,467.7737 124.31473,469.86944 128.57143,470.93361 C 135.14812,472.57778 132.40917,482.7255 131.42857,486.6479 C 130.15309,491.74983 123.71033,494.79273 120,496.6479 C 114.0561,499.61985 110.16543,500.93361 102.85714,500.93361 C 97.312304,500.93361 89.371786,502.36218 82.857143,502.36218 C 80.952381,502.36218 79.047619,502.36218 77.142857,502.36218"
         style="fill:none;fill-rule:evenodd;stroke:#000000;stroke-width:1px;stroke-linecap:butt;stroke-linejoin:miter;stroke-opacity:1" />
      <path
         id="path2469"
         d="M 102.85714,455.21933 C 96.380252,455.21933 109.70586,466.35376 114.28571,470.93361 C 116.58478,473.23268 120.66399,482.161 121.42857,485.21933 C 123.49565,493.48765 117.1302,495.93994 112.85714,498.07647 C 107.47569,500.7672 99.249265,499.50504 92.857143,499.50504 C 86.918025,499.50504 81.539935,502.36218 75.714286,502.36218"
         style="fill:none;fill-rule:evenodd;stroke:#000000;stroke-width:1px;stroke-linecap:butt;stroke-linejoin:miter;stroke-opacity:1" />
      <path
         id="path2471"
         d="M 56.428571,304.50504 C 56.147139,306.26308 56.42539,313.06374 57.142857,315.93361 C 58.052111,319.57063 57.068322,322.77833 57.857143,325.93361 C 58.766397,329.57063 57.782607,332.77833 58.571429,335.93361 C 59.298743,338.84287 60.083756,341.98292 60.714286,344.50504 C 61.598469,348.04177 61.396583,350.80566 62.142857,353.79075 C 62.911317,356.86459 64.203122,358.46038 65,361.6479 C 65.702548,364.45809 67.508264,366.66442 68.571429,368.79075 C 69.690754,371.0294 70.875774,374.43671 71.428572,376.6479 C 72.262172,379.9823 73.571429,380.86341 73.571429,385.21932 C 73.571429,387.85662 75.196624,391.7201 75.714286,393.79075 C 76.560967,397.17748 76.505365,400.5265 77.142857,403.07647 C 77.911082,406.14937 78.829269,408.59215 80,410.93361 C 81.377796,413.6892 82.271963,416.19182 83.571429,418.79075 C 84.94499,421.53788 86.823453,422.75706 88.571429,424.50504 C 90.753769,426.68738 92.446252,427.66558 94.285714,429.50504 C 96.369381,431.58871 97.887989,433.19985 98.571429,435.93361 C 99.34558,439.03022 93.654566,438.94854 91.428572,439.50504 C 86.423618,440.75628 87.483064,440.74657 85,439.50504 C 84.626397,439.31824 82.399516,432.16121 82.142857,431.6479 C 80.974657,429.3115 79.874963,426.14775 79.285714,423.79075 C 78.408774,420.28299 77.198626,419.01383 76.428572,415.93361 C 76.038205,414.37215 72.363325,411.15408 71.428572,410.21932 C 70.118244,408.909 72.142857,402.22239 72.142857,400.21932 C 72.142857,396.04858 71.347361,394.34262 70,391.6479 C 68.473667,388.59523 67.948085,387.01166 67.142857,383.79075 C 66.50446,381.23717 64.583696,378.67243 63.571429,376.6479 C 62.142913,373.79086 60.538326,372.72455 59.285714,370.21932 C 57.916772,367.48144 57.144471,365.22578 56.428571,362.36218 C 55.665742,359.31086 54.853779,356.06301 54.285714,353.79075 C 53.507025,350.676 54.285714,346.30608 54.285714,343.07647 C 54.285714,340.7332 51.926428,337.21075 51.428571,335.21932 C 50.512534,331.55517 50.12636,330.01048 49.285714,326.6479 C 48.507695,323.53582 48.669168,320.61028 47.857143,317.36218 C 47.132619,314.46409 47.142857,311.11774 47.142857,307.36218 C 47.142857,305.33171 55.164768,304.50504 56.428571,304.50504 z"
         style="fill:#000000;fill-opacity:0.32727272;fill-rule:evenodd;stroke:none;stroke-width:1px;stroke-linecap:butt;stroke-linejoin:miter;stroke-opacity:1" />
      <path
         id="path3243"
         d="M 86.071429,443.79075 C 84.914049,445.01293 84.081473,447.56642 82.857143,448.79075 C 81.946929,449.70097 81.457659,452.30401 81.071429,453.07647 C 80.371815,454.47569 80.357143,456.00028 80.357143,458.07647 C 80.357143,459.84249 81.312602,460.69705 82.5,461.29075 C 84.433741,462.25762 86.922292,460.59327 87.857143,460.21932 C 89.810679,459.43791 90.667588,458.09515 92.5,457.36218 C 93.590961,456.9258 95.317851,454.90147 96.071429,454.1479 C 97.394224,452.8251 98.549572,452.38404 99.642857,451.29075 C 100.78473,450.14888 101.23391,448.70951 102.5,448.07647 C 103.61235,447.52029 104.52203,445.10383 105,444.1479 C 105.58987,442.96815 107.39532,442.10972 108.21429,441.29075 C 109.37865,440.12639 109.74571,439.09647 111.07143,438.43361 C 111.81267,438.06299 112.93381,435.78027 113.21429,435.21932 C 114.00349,433.64091 114.54723,433.45896 115,431.6479 C 115.41149,430.00195 116.42857,429.9484 116.42857,427.71932 C 116.42857,426.64454 112.36162,427.30749 112.14286,427.36218 C 110.46581,427.78144 109.08948,427.81744 107.85714,428.43361 C 106.51464,429.10486 103.7429,428.70502 102.85714,429.1479 C 101.57496,429.78899 103.14109,432.15143 102.5,433.43361 C 101.87646,434.68069 100.30332,435.42481 99.285714,435.93361 C 98.095326,436.5288 97.556679,438.01979 96.785714,438.79075 C 95.694544,439.88192 94.49116,440.01388 93.571429,440.93361 C 92.961631,441.54341 89.766279,441.43847 88.928572,441.6479 C 87.208067,442.07802 86.983888,441.50961 86.071429,443.79075 z"
         style="fill:#f6ff00;fill-opacity:1;fill-rule:evenodd;stroke:#000000;stroke-width:1px;stroke-linecap:butt;stroke-linejoin:miter;stroke-opacity:1" />
      <path
         id="path3245"
         d="M 97.479721,437.68436 C 97.468687,439.32943 95.482889,441.63108 94.954339,443.74527 C 94.436953,445.81482 93.481382,447.11172 92.934034,449.30111 C 92.241266,452.07219 93.680942,453.82539 94.449263,455.36203 C 95.723974,457.91145 90.69166,457.56412 89.3985,457.88741 C 87.28348,458.41616 85.506278,458.89756 82.832509,458.89756 C 80.146487,458.89756 81.420613,454.9487 81.822356,453.34172 C 82.392543,451.06097 83.076514,449.31818 83.842661,447.78588 C 84.811535,445.84814 86.649945,445.48368 87.883271,444.25035 C 89.565513,442.56811 89.547613,441.30888 91.923882,440.71482 C 94.795341,439.99695 94.278728,439.60495 97.479721,437.68436 z"
         style="fill:#000000;fill-opacity:0.28636367;fill-rule:evenodd;stroke:none;stroke-width:1px;stroke-linecap:butt;stroke-linejoin:miter;stroke-opacity:1" />
    </g>
    <path
       sodipodi:nodetypes="ccccccc"
       id="path3270"
       d="M 500.95578,337.59136 L 819.61641,337.59136 L 819.61641,434.73422 L 557.38435,434.73422 L 456.67007,501.87708 L 500.95578,395.44851 L 500.95578,337.59136 z"
       style="fill:#b4c40d;fill-opacity:0.82727272;fill-rule:nonzero;stroke:#f2f400;stroke-width:3;stroke-linecap:butt;stroke-linejoin:miter;marker:none;marker-start:none;marker-mid:none;marker-end:none;stroke-miterlimit:4;stroke-dashoffset:0;stroke-opacity:1;visibility:visible;display:inline;overflow:visible;enable-background:accumulate" />
    <text
       id="text3272"
       y="405.80453"
       x="516.39954"
       style="font-size:51.0834198px;font-style:normal;font-variant:normal;font-weight:normal;font-stretch:normal;fill:#000000;fill-opacity:1;stroke:none;stroke-width:1px;stroke-linecap:butt;stroke-linejoin:miter;stroke-opacity:1;font-family:Gentium;-inkscape-font-specification:Gentium"
       xml:space="preserve"><tspan
         id="tspan3274"
         y="405.80453"
         x="516.39954"
         sodipodi:role="line">Gradient edit.</tspan></text>
  </g>
</svg>
