<?xml version="1.0" encoding="UTF-8" standalone="no"?>
<!-- Created with Inkscape (http://www.inkscape.org/) -->

<svg
   xmlns:dc="http://purl.org/dc/elements/1.1/"
   xmlns:cc="http://creativecommons.org/ns#"
   xmlns:rdf="http://www.w3.org/1999/02/22-rdf-syntax-ns#"
   xmlns:svg="http://www.w3.org/2000/svg"
   xmlns="http://www.w3.org/2000/svg"
   xmlns:sodipodi="http://sodipodi.sourceforge.net/DTD/sodipodi-0.dtd"
   xmlns:inkscape="http://www.inkscape.org/namespaces/inkscape"
   width="493"
   height="222.64"
   id="svg2"
   version="1.1"
   inkscape:version="0.47 r22583"
   sodipodi:docname="arm.svg"
   inkscape:export-filename="/home/Chicken1/preshack/dist/job/arm.png"
   inkscape:export-xdpi="91.279999"
   inkscape:export-ydpi="91.279999">
  <defs
     id="defs4">
    <inkscape:perspective
       sodipodi:type="inkscape:persp3d"
       inkscape:vp_x="0 : 526.18109 : 1"
       inkscape:vp_y="0 : 1000 : 0"
       inkscape:vp_z="744.09448 : 526.18109 : 1"
       inkscape:persp3d-origin="372.04724 : 350.78739 : 1"
       id="perspective10" />
    <inkscape:perspective
       id="perspective3717"
       inkscape:persp3d-origin="0.5 : 0.33333333 : 1"
       inkscape:vp_z="1 : 0.5 : 1"
       inkscape:vp_y="0 : 1000 : 0"
       inkscape:vp_x="0 : 0.5 : 1"
       sodipodi:type="inkscape:persp3d" />
  </defs>
  <sodipodi:namedview
     id="base"
     pagecolor="#464646"
     bordercolor="#464646"
     borderopacity="1"
     inkscape:pageopacity="0"
     inkscape:pageshadow="2"
     inkscape:zoom="1.9156903"
     inkscape:cx="155.2554"
     inkscape:cy="98.555742"
     inkscape:document-units="px"
     inkscape:current-layer="layer1"
     showgrid="false"
     inkscape:window-width="1278"
     inkscape:window-height="754"
     inkscape:window-x="0"
     inkscape:window-y="15"
     inkscape:window-maximized="0" />
  <metadata
     id="metadata7">
    <rdf:RDF>
      <cc:Work
         rdf:about="">
        <dc:format>image/svg+xml</dc:format>
        <dc:type
           rdf:resource="http://purl.org/dc/dcmitype/StillImage" />
        <dc:title></dc:title>
      </cc:Work>
    </rdf:RDF>
  </metadata>
  <g
     inkscape:label="Layer 1"
     inkscape:groupmode="layer"
     id="layer1"
     transform="translate(-100.25569,-269.34163)">
    <rect
       style="color:#000000;fill:none;stroke:#c5dde2;stroke-width:1.99999988;stroke-linecap:butt;stroke-linejoin:round;stroke-miterlimit:4;stroke-opacity:0.8033473;stroke-dasharray:none;stroke-dashoffset:0;marker:none;visibility:visible;display:inline;overflow:visible;enable-background:accumulate"
       id="rect2816"
       width="148.24945"
       height="58.464565"
       x="200.22771"
       y="396.42334"
       ry="26.367613" />
    <rect
       ry="37.415615"
       y="73.913582"
       x="326.10208"
       height="82.961159"
       width="158.12057"
       id="rect3590"
       style="color:#000000;fill:none;stroke:#c5dde2;stroke-width:2;stroke-linecap:butt;stroke-linejoin:round;stroke-miterlimit:4;stroke-opacity:0.8033473;stroke-dasharray:none;stroke-dashoffset:0;marker:none;visibility:visible;display:inline;overflow:visible;enable-background:accumulate"
       transform="matrix(0.66752691,0.74458567,-0.74475897,0.66733356,0,0)" />
    <path
       style="fill:none;stroke:#c5dde2;stroke-width:1;stroke-linecap:butt;stroke-linejoin:miter;stroke-miterlimit:4;stroke-opacity:0.8033473;stroke-dasharray:3, 3;stroke-dashoffset:0"
       d="m 244.59814,383.37321 -60.55259,57.42055"
       id="path3596" />
    <path
       style="fill:none;stroke:#c5dde2;stroke-width:1;stroke-linecap:butt;stroke-linejoin:miter;stroke-miterlimit:4;stroke-opacity:0.8033473;stroke-dasharray:3, 3;stroke-dashoffset:0"
       d="m 320.77005,395.84887 1.04401,56.89855"
       id="path3600" />
    <path
       style="fill:none;stroke:#c5dde2;stroke-width:1;stroke-linecap:butt;stroke-linejoin:miter;stroke-miterlimit:4;stroke-opacity:0.8033473;stroke-dasharray:3, 3;stroke-dashoffset:0"
       d="M 130.27903,319.68859 236.24606,437.66173"
       id="path3604" />
    <path
       style="fill:none;stroke:#c5dde2;stroke-width:1;stroke-linecap:butt;stroke-linejoin:miter;stroke-miterlimit:4;stroke-opacity:0.8033473;stroke-dasharray:3, 3;stroke-dashoffset:0"
       d="m 348.47714,426.17762 -148.24943,-0.522"
       id="path3606" />
    <path
       style="fill:none;stroke:#1e9103;stroke-width:3;stroke-linecap:butt;stroke-linejoin:miter;stroke-miterlimit:4;stroke-opacity:1;stroke-dasharray:none"
       d="m 169.95141,302.98443 c 0.61489,0.76861 1.47314,1.31941 2.08802,2.08802 1.20585,1.50731 0.6876,1.48968 2.08803,2.61002 0.48989,0.39192 1.12239,0.6004 1.56601,1.04401 0.44362,0.44362 0.69601,1.04402 1.04401,1.56602 0.69601,0.69601 1.34068,1.44744 2.08802,2.08802 0.47634,0.40829 1.07612,0.65209 1.56602,1.04401 0.76861,0.61489 1.39201,1.39201 2.08802,2.08802 1.21801,1.21801 2.43602,2.43602 3.65403,3.65404 0.348,0.348 0.65029,0.74872 1.04401,1.04401 0.31127,0.23344 0.76889,0.24688 1.04401,0.522 0.27512,0.27512 0.28856,0.73275 0.52201,1.04401 0.87697,1.16929 2.25506,1.96274 3.13203,3.13203 0.23344,0.31127 0.24688,0.76889 0.522,1.04401 0.27512,0.27512 0.73275,0.28856 1.04401,0.52201 1.82658,1.36993 0.42274,0.56365 1.56602,2.08802 2.25782,2.25782 0.0818,-0.13829 1.56601,2.08802 0.273,0.40949 0.77102,0.63451 1.04401,1.04401 1.89242,3.78484 -0.55024,-0.82537 1.04401,1.56601 0.21583,0.32374 0.30619,0.72028 0.52201,1.04401 0.1365,0.20475 0.3855,0.31726 0.522,0.52201 0.57951,0.86926 0.96125,2.32566 1.56602,3.13203 2.25782,2.25782 0.0818,-0.13829 1.56601,2.08802 0.273,0.40949 0.77102,0.63451 1.04401,1.04401 1.15007,0.26288 0.27593,1.07386 0.52201,1.56601 0.22009,0.4402 0.82391,0.60382 1.04401,1.04401 0.0778,0.15564 -0.12304,0.39897 0,0.52201 0.12304,0.12304 0.44419,-0.15563 0.522,0 0.15564,0.31126 -0.11005,0.71386 0,1.04401 0.0942,0.28253 1.33739,1.22307 1.56602,1.56601 0.21582,0.32374 0.30618,0.72028 0.522,1.04401 0.1365,0.20475 0.38551,0.31726 0.52201,0.52201 0.21582,0.32373 0.30618,0.72028 0.522,1.04401 0.1365,0.20475 0.38551,0.31726 0.52201,0.522 0.43164,0.64747 0.61236,1.44056 1.04401,2.08802 0.68396,1.02594 0.36005,0.0181 1.04401,1.04401 0.21582,0.32374 0.30618,0.72028 0.522,1.04401 0.1365,0.20475 0.38551,0.31726 0.52201,0.52201 0.21582,0.32373 0.24688,0.76889 0.522,1.04401 0.27512,0.27512 0.72028,0.30618 1.04401,0.522 0.20475,0.1365 0.34801,0.34801 0.52201,0.52201 0.348,0.348 0.74872,0.65029 1.04401,1.04401 0.23345,0.31126 0.30618,0.72028 0.522,1.04401 0.51208,0.76812 1.57595,1.3199 2.08802,2.08802 0.21583,0.32373 0.30619,0.72028 0.52201,1.04401 0.1365,0.20475 0.44419,0.28856 0.522,0.52201 0.11005,0.33014 -0.11004,0.71386 0,1.04401 0.15564,0.46689 0.77102,0.63451 1.04401,1.04401 0.21583,0.32373 0.30619,0.72027 0.52201,1.04401 0.1365,0.20474 0.38551,0.31725 0.522,0.522 0.21583,0.32373 0.30619,0.72028 0.52201,1.04401 0.1365,0.20475 0.38551,0.31726 0.522,0.52201 0.21583,0.32373 0.28856,0.73274 0.52201,1.04401 0.29529,0.39372 0.74872,0.65029 1.04401,1.04401 0.23345,0.31126 0.30618,0.72027 0.52201,1.04401 0.13649,0.20474 0.3855,0.31725 0.522,0.522 0.43165,0.64747 0.61237,1.44055 1.04401,2.08802 0.273,0.4095 0.88838,0.57712 1.04401,1.04401 0.11005,0.33015 -0.11005,0.71387 0,1.04401 0.1271,0.38129 1.96093,1.70674 2.08802,2.08802 0.11005,0.33015 -0.11005,0.71387 0,1.04401 0.1271,0.38129 1.96093,1.70674 2.08802,2.08802 0.11005,0.33015 -0.19304,0.75446 0,1.04401 0.21582,0.32374 0.76889,0.24689 1.04401,0.52201 0.12304,0.12303 -0.0778,0.36637 0,0.522 0.11005,0.2201 0.41196,0.30191 0.52201,0.52201 0.0778,0.15563 -0.12304,0.39896 0,0.522 0.12303,0.12304 0.39896,-0.12304 0.522,0 0.12304,0.12304 -0.0778,0.36638 0,0.52201 0.2201,0.44019 0.82391,0.60381 1.04401,1.04401 0.0778,0.15563 -0.0778,0.36637 0,0.522 0.11005,0.2201 0.38551,0.31726 0.52201,0.52201 0.21582,0.32373 0.30618,0.72027 0.522,1.04401 0.1365,0.20474 0.41196,0.30191 0.52201,0.522 0.0778,0.15563 -0.12304,0.39897 0,0.52201 0.12303,0.12304 0.39896,-0.12304 0.522,0 0.24608,0.24607 -0.24607,0.79793 0,1.04401 0.12304,0.12304 0.39897,-0.12304 0.52201,0 0.24607,0.24607 -0.24608,0.79793 0,1.04401 0.12303,0.12304 0.39896,-0.12304 0.522,0 0.12304,0.12304 0,0.348 0,0.522 0,0.34801 -0.15563,0.73275 0,1.04401 0.0778,0.15563 0.39897,-0.12303 0.52201,0 0.24607,0.24608 -0.15564,0.73275 0,1.04401 0.64504,1.29009 0.522,-0.18018 0.522,1.04401"
       id="path3608" />
    <path
       style="fill:none;stroke:#1e9103;stroke-width:3;stroke-linecap:butt;stroke-linejoin:miter;stroke-miterlimit:4;stroke-opacity:1;stroke-dasharray:none"
       d="m 220.5859,398.51135 c 1.21802,0 2.43603,0 3.65404,0 0.348,0 0.7064,0.0844 1.04401,0 0.37746,-0.0944 0.66655,-0.42764 1.04401,-0.522 0.33761,-0.0844 0.70276,0.0683 1.04401,0 0.53956,-0.10791 1.02646,-0.4141 1.56602,-0.52201 0.85311,-0.17062 1.75185,0.14303 2.61002,0 0.54276,-0.0905 1.02646,-0.41409 1.56602,-0.522 0.34124,-0.0683 0.696,0 1.04401,0 0.696,0 1.39201,0 2.08802,0 0.522,0 1.05111,0.0858 1.56601,0 0.54276,-0.0905 1.02326,-0.43155 1.56602,-0.52201 0.5149,-0.0858 1.04401,0 1.56601,0 1.21801,0 2.43603,0 3.65404,0 3.30603,0 6.61206,0 9.91809,0 2.26202,0 4.52405,0 6.78607,0 0.42736,0 2.27181,-0.11274 2.61002,0 0.36912,0.12304 0.66655,0.42764 1.04401,0.52201 0.41062,0.10265 2.58919,0 3.13203,0 0.17401,0 0.35694,-0.055 0.52201,0 2.03291,0.67764 0.0488,0.522 2.08802,0.522 2.78403,0 5.56805,0 8.35208,0 0.39851,0 2.80314,-0.10963 3.13203,0 0.36911,0.12304 0.6749,0.39897 1.04401,0.52201 0.33015,0.11005 0.69601,0 1.04401,0 1.04401,0 2.08802,0 3.13203,0 0.174,0 0.348,0 0.52201,0 0.174,0 0.36637,-0.0778 0.522,0 0.2201,0.11005 0.30191,0.41196 0.52201,0.522 0.22294,0.11147 2.40367,0 2.61002,0 1.91402,0 3.82804,0 5.74206,0 1.91402,0 3.82803,0 5.74205,0 0.36046,0 1.92931,-0.0793 2.08802,0 0.2201,0.11005 0.30191,0.41196 0.52201,0.52201 0.33111,0.16556 2.27092,-0.16955 2.61002,0 0.2201,0.11005 0.30191,0.41196 0.52201,0.522 0.31697,0.15849 2.81506,-0.15848 3.13203,0 0.2201,0.11005 0.28856,0.44419 0.522,0.52201 0.23876,0.0796 1.85574,-0.11614 2.08802,0 0.2201,0.11005 0.30191,0.41196 0.52201,0.522 0.15563,0.0778 0.348,0 0.522,0 0.34801,0 0.71387,-0.11004 1.04401,0 0.23345,0.0778 0.30191,0.41196 0.52201,0.52201 0.34594,0.17297 1.65051,-0.14584 2.08802,0 0.36911,0.12304 0.6749,0.39897 1.04401,0.522 0.34525,0.11509 2.61923,0 3.13203,0 0.174,0 0.36637,-0.0778 0.522,0 0.2201,0.11005 0.30191,0.41196 0.52201,0.52201 0.32809,0.16405 1.75993,-0.16405 2.08802,0 0.2201,0.11005 0.30191,0.41196 0.52201,0.522 0.30814,0.15408 2.83106,-0.15048 3.13203,0 0.15563,0.0778 -0.15564,0.44419 0,0.52201 2.37631,0 0.0299,-0.24608 1.56601,0.522 0.28318,0.14159 1.94519,-0.14283 2.08802,0 0.12304,0.12304 -0.12304,0.39897 0,0.52201 0.12304,0.12304 0.36637,-0.0778 0.52201,0 0.22009,0.11005 0.3019,0.41196 0.522,0.522 0.41761,0.20881 1.14841,-0.2088 1.56602,0 0.22009,0.11005 0.348,0.34801 0.522,0.52201 0.348,0 0.71387,-0.11005 1.04401,0 0.23345,0.0778 0.28856,0.44419 0.52201,0.522 0.33014,0.11005 0.71386,-0.11004 1.04401,0 0.23344,0.0778 0.3019,0.41196 0.522,0.52201 0.41761,0.2088 1.14841,-0.2088 1.56602,0 0.22009,0.11005 0.30191,0.41196 0.522,0.522 0.20697,0.10349 1.4593,-0.10671 1.56602,0 0.12303,0.12304 -0.12304,0.39897 0,0.52201 0.12303,0.12304 0.348,0 0.522,0 0.34801,0 0.69601,0 1.04401,0 1.39202,0 -0.174,-0.174 0.52201,0.522 0.14283,0.14284 1.80484,-0.14159 2.08802,0 0.22009,0.11005 0.30191,0.41196 0.522,0.52201 0.31127,0.15563 0.79794,-0.24608 1.04401,0 0.12304,0.12304 -0.12304,0.39897 0,0.522 0.10672,0.10672 1.35905,-0.10348 1.56602,0 0.22009,0.11005 0.348,0.34801 0.522,0.52201 0.34801,0 0.71387,-0.11005 1.04401,0 0.23345,0.0778 0.30191,0.41196 0.52201,0.522 0.20697,0.10349 1.4593,-0.10671 1.56601,0 0.12304,0.12304 -0.12303,0.39897 0,0.52201 0.26101,0.261 1.30502,-0.261 1.56602,0 0.12304,0.12304 -0.12304,0.39897 0,0.522 0.0168,0.0168 1.43941,0 1.56601,0"
       id="path3610" />
    <path
       style="fill:none;stroke:#1e9103;stroke-width:3;stroke-linecap:butt;stroke-linejoin:miter;stroke-miterlimit:4;stroke-opacity:1;stroke-dasharray:none"
       d="m 358.91724,458.01993 c -9.91809,0 -19.83619,0 -29.75428,0 -1.91402,0 -3.82804,0 -5.74206,0 -0.348,0 -0.69601,0 -1.04401,0 -0.348,0 -0.7064,-0.0844 -1.04401,0 -0.37746,0.0944 -0.66655,0.42764 -1.04401,0.522 -0.35326,0.0883 -3.31812,0 -3.65404,0 -0.348,0 -0.70639,-0.0844 -1.04401,0 -0.37746,0.0944 -0.66248,0.4457 -1.04401,0.52201 -0.55123,0.11025 -2.89911,0 -3.65403,0 -0.348,0 -0.7064,-0.0844 -1.04401,0 -0.37746,0.0944 -0.66655,0.42764 -1.04401,0.522 -0.33761,0.0844 -0.69601,0 -1.04401,0 -0.69601,0 -1.39202,0 -2.08802,0 -0.34801,0 -0.70277,-0.0682 -1.04401,0 -0.53956,0.10792 -1.02131,0.44419 -1.56602,0.52201 -0.68901,0.0984 -1.39201,0 -2.08802,0 -0.522,0 -1.04401,0 -1.56601,0 -1.91402,0 -3.82804,0 -5.74206,0 -1.21801,0 -2.45259,-0.20024 -3.65403,0 -0.92428,0.15405 -1.68812,0.87639 -2.61003,1.04401 -1.02717,0.18676 -2.09163,-0.0867 -3.13203,0 -1.05475,0.0879 -2.07727,0.43411 -3.13203,0.522 -1.0404,0.0867 -2.10829,-0.20474 -3.13203,0 -0.76305,0.15261 -1.32839,0.87521 -2.08802,1.04402 -2.78403,0.61867 -1.94882,-0.37121 -4.17604,0 -0.54276,0.0905 -1.02326,0.43154 -1.56602,0.522 -0.85817,0.14303 -1.76599,-0.21101 -2.61002,0 -0.37746,0.0944 -0.66249,0.4457 -1.04401,0.52201 -1.33848,0.26769 -2.83757,-0.2677 -4.17604,0 -0.38153,0.0763 -0.66655,0.42763 -1.04401,0.522 -0.33761,0.0844 -0.69601,0 -1.04401,0 -0.348,0 -0.69601,0 -1.04401,0 -1.91402,0 -3.82804,0 -5.74206,0 -1.21801,0 -2.43602,0 -3.65403,0 -0.34801,0 -0.7064,0.0844 -1.04401,0 -0.37747,-0.0944 -0.66655,-0.42764 -1.04401,-0.522 -0.71104,-0.17777 -2.50052,0.2105 -3.13203,0 -0.23345,-0.0778 -0.30191,-0.41196 -0.52201,-0.52201 -0.34594,-0.17297 -1.65051,0.14584 -2.08802,0 -0.36911,-0.12304 -0.67489,-0.39897 -1.04401,-0.522 -0.16507,-0.055 -0.348,0 -0.522,0 -0.443,0 -2.84426,0.0959 -3.13203,0 -0.23345,-0.0778 -0.30191,-0.41196 -0.52201,-0.52201 -0.15563,-0.0778 -0.348,0 -0.522,0 -0.34801,0 -0.69601,0 -1.04401,0 -0.52201,0 -1.04401,0 -1.56602,0 -0.174,0 -0.39897,0.12304 -0.522,0 -0.12304,-0.12304 0.12303,-0.39897 0,-0.52201 -0.18324,-0.18323 -2.24946,0.18029 -2.61003,0 -1.73127,-1.73127 0.49215,0.24608 -1.04401,-0.522 -0.2201,-0.11005 -0.28856,-0.44419 -0.522,-0.52201 -0.66029,-0.22009 -1.4128,0.16881 -2.08802,0 -0.37747,-0.0944 -0.6749,-0.39896 -1.04401,-0.522 -0.46981,-0.1566 -1.09622,0.1566 -1.56602,0 -0.23345,-0.0778 -0.30191,-0.41196 -0.522,-0.52201 -0.31127,-0.15563 -0.73275,0.15564 -1.04402,0 -0.22009,-0.11004 -0.3019,-0.41195 -0.522,-0.522 -0.31126,-0.15563 -0.73275,0.15563 -1.04401,0 -0.2201,-0.11005 -0.30191,-0.41196 -0.52201,-0.52201 -0.20697,-0.10348 -1.45929,0.10672 -1.56601,0 -0.12304,-0.12303 0.12304,-0.39896 0,-0.522 -0.24608,-0.24608 -1.04401,0.348 -1.04401,0 0,-0.174 0.69601,0 0.522,0 -0.348,0 -0.696,0 -1.04401,0 -0.174,0 -0.35693,-0.055 -0.522,0 -0.36911,0.12304 -0.66655,0.42764 -1.04401,0.522 -0.33761,0.0844 -0.7064,-0.0844 -1.04401,0 -0.37746,0.0944 -0.6749,0.39897 -1.04401,0.52201 -0.16507,0.055 -0.35693,-0.055 -0.52201,0 -0.36911,0.12304 -0.66654,0.42764 -1.04401,0.522 -0.33761,0.0844 -0.696,0 -1.04401,0 -0.348,0.17401 -0.67489,0.39897 -1.04401,0.52201 -0.33014,0.11005 -0.79793,-0.24608 -1.04401,0 -0.12303,0.12304 0.12304,0.39897 0,0.522 -0.10671,0.10672 -1.35904,-0.10348 -1.56601,0 -0.2201,0.11005 -0.30191,0.41196 -0.52201,0.52201 -0.15563,0.0778 -0.348,0 -0.522,0 -0.174,0 -0.34801,0 -0.52201,0 -0.696,0 -1.39201,0 -2.08802,0 -0.348,0 -0.696,0 -1.04401,0 -0.174,0 -0.35693,-0.055 -0.522,0 -0.36912,0.12304 -0.6749,0.39897 -1.04401,0.522 -0.29452,0.0982 -1.223,0 -1.56602,0 -0.87001,0 -1.74001,0 -2.61002,0 -0.56998,0 -2.27244,0.11253 -2.61003,0 -0.36911,-0.12303 -0.67489,-0.39896 -1.04401,-0.522 -0.43949,-0.1465 -2.29924,0.15539 -2.61002,0 -0.2201,-0.11005 -0.30191,-0.41196 -0.52201,-0.52201 -0.15563,-0.0778 -0.36637,0.0778 -0.522,0 -0.2201,-0.11004 -0.30191,-0.41195 -0.52201,-0.522 -0.15563,-0.0778 -0.348,0 -0.522,0 -0.34801,-0.174 -0.72028,-0.30618 -1.04401,-0.52201 -0.20475,-0.13649 -0.30191,-0.41195 -0.52201,-0.522 -0.15563,-0.0778 -0.36637,0.0778 -0.522,0 -0.2201,-0.11005 -0.30191,-0.41196 -0.52201,-0.52201 -0.31126,-0.15563 -0.73275,0.15564 -1.04401,0 -0.2201,-0.11004 -0.30191,-0.41195 -0.522,-0.522 -0.15564,-0.0778 -0.39897,0.12304 -0.52201,0 -0.12304,-0.12304 0.12304,-0.39897 0,-0.52201 -0.24607,-0.24607 -0.79793,0.24608 -1.04401,0 -0.12304,-0.12303 0.12304,-0.39896 0,-0.522 -0.12304,-0.12304 -0.36637,0.0778 -0.522,0 -0.4402,-0.2201 -0.60382,-0.82391 -1.04401,-1.04401 -0.31127,-0.15563 -0.79794,0.24607 -1.04401,0 -0.12304,-0.12304 0.12303,-0.39897 0,-0.52201 -0.12304,-0.12303 -0.39897,0.12304 -0.52201,0 -0.12304,-0.12303 0.0778,-0.36637 0,-0.522 -0.11005,-0.2201 -0.41196,-0.30191 -0.522,-0.52201 -0.0778,-0.15563 0.12303,-0.39896 0,-0.522 -0.12304,-0.12304 -0.36638,0.0778 -0.52201,0 -2.17246,-1.08623 0.55804,0.036 -0.522,-1.04401 -0.12304,-0.12304 -0.36638,0.0778 -0.52201,0 -0.1386,-0.0693 -1.49672,-1.42742 -1.56601,-1.56602 -0.0778,-0.15563 0.0778,-0.36637 0,-0.522 -0.11005,-0.2201 -0.41196,-0.30191 -0.52201,-0.52201 -0.0944,-0.18877 0,-2.24695 0,-2.61002 0,-1.21801 0,-2.43602 0,-3.65404 0,-0.12404 -0.0585,-1.97102 0,-2.08802 0.11005,-0.22009 0.41196,-0.30191 0.52201,-0.522 0.0778,-0.15563 0,-0.34801 0,-0.52201 0,-0.174 0,-0.348 0,-0.522"
       id="path3612" />
    <path
       style="fill:none;stroke:#ffa60c;stroke-width:2;stroke-linecap:butt;stroke-linejoin:miter;stroke-miterlimit:4;stroke-opacity:1;stroke-dasharray:none"
       d="m 192.91964,434.0077 c 0,1.91402 0,3.82803 0,5.74205 0,0.54285 -0.10266,2.72142 0,3.13203 0.0944,0.37747 0.348,0.69601 0.522,1.04401 0.174,0.34801 0.34801,0.69601 0.52201,1.04401 0.174,0.34801 0.24688,0.76889 0.522,1.04401 0.27512,0.27512 0.76889,0.24689 1.04401,0.52201 0.27512,0.27512 0.24689,0.76889 0.52201,1.04401 0.12304,0.12304 0.36637,-0.0778 0.522,0 0.2201,0.11005 0.30191,0.41196 0.52201,0.522 0.31126,0.15564 0.73274,-0.15563 1.04401,0 0.22009,0.11005 0.28855,0.44419 0.522,0.52201 0.23896,0.0797 2.31867,0 2.61003,0 1.04401,0 2.08802,0 3.13203,0 0.348,0 0.70276,0.0682 1.04401,0 0.53955,-0.10791 1.0322,-0.38855 1.56601,-0.52201 0.16881,-0.0422 0.34801,0 0.52201,0 0.87001,0 1.74002,0 2.61002,0 0.17401,0 0.35694,0.055 0.52201,0 0.36911,-0.12303 0.6749,-0.39896 1.04401,-0.522 0.74554,-0.24851 1.04401,0.68465 1.04401,-0.52201"
       id="path3614" />
    <path
       style="fill:none;stroke:#1e9103;stroke-width:3;stroke-linecap:butt;stroke-linejoin:miter;stroke-miterlimit:4;stroke-opacity:1;stroke-dasharray:none"
       d="m 177.78149,436.09572 c -2.52077,-2.52078 0.68249,0.54599 -2.61002,-2.08802 -1.61843,-1.29474 -0.46778,-1.0169 -2.61003,-2.08802 -0.49215,-0.24608 -1.09419,-0.23891 -1.56602,-0.52201 -0.42201,-0.25321 -0.65028,-0.74872 -1.04401,-1.04401 -0.80636,-0.60477 -2.26276,-0.98651 -3.13203,-1.56601 -0.60231,-0.40155 -0.9637,-1.16448 -1.56601,-1.56602 -0.32373,-0.21582 -0.72028,-0.30618 -1.04401,-0.522 -0.4095,-0.273 -0.63452,-0.77102 -1.04401,-1.04401 -0.32373,-0.21583 -0.69601,-0.34801 -1.04401,-0.52201 -0.69601,-0.348 -1.39201,-0.69601 -2.08802,-1.04401 -0.348,-0.174 -0.73275,-0.28856 -1.04401,-0.522 -0.39372,-0.29529 -0.65029,-0.74872 -1.04401,-1.04401 -0.62253,-0.4669 -1.44055,-0.61237 -2.08802,-1.04401 -0.20475,-0.1365 -0.30191,-0.41196 -0.52201,-0.52201 -0.49215,-0.24607 -1.07386,-0.27593 -1.56601,-0.522 -0.39876,-0.19938 -1.21254,-1.44819 -1.56602,-1.56602 -0.33014,-0.11005 -0.73274,0.15563 -1.04401,0 -0.15563,-0.0778 0.12304,-0.39897 0,-0.522 -0.27512,-0.27513 -0.72027,-0.30619 -1.04401,-0.52201 -0.20474,-0.1365 -0.31726,-0.38551 -0.522,-0.522 -0.0972,-0.0648 -2.05457,-1.01056 -2.08802,-1.04401 -0.27512,-0.27513 -0.24689,-0.76889 -0.52201,-1.04401 -0.0335,-0.0335 -1.99078,-0.97919 -2.08802,-1.04401 -0.20474,-0.1365 -0.348,-0.34801 -0.522,-0.52201 -0.34801,-0.348 -0.69601,-0.69601 -1.04401,-1.04401 -0.174,-0.174 -0.30191,-0.41196 -0.52201,-0.522 -0.49215,-0.24608 -1.12582,-0.19186 -1.56601,-0.52201 -0.31127,-0.23345 -0.24689,-0.76889 -0.52201,-1.04401 -0.27512,-0.27512 -0.73274,-0.28856 -1.04401,-0.52201 -4.07837,-3.05877 2.3804,0.9292 -2.61002,-1.56601 -0.2201,-0.11005 -0.34801,-0.348 -0.52201,-0.52201 -0.348,-0.348 -0.74872,-0.65028 -1.04401,-1.04401 -0.23345,-0.31126 -0.24688,-0.76888 -0.522,-1.04401 -0.27512,-0.27512 -0.76889,-0.24688 -1.04401,-0.522 -0.44362,-0.44362 -0.66759,-1.06412 -1.04401,-1.56602 -0.44294,-0.59058 -1.04401,-1.04401 -1.56602,-1.56601 -0.87001,-0.87001 -1.74002,-1.74002 -2.61002,-2.61003 -0.34801,-0.348 -0.69601,-0.696 -1.04401,-1.04401 -0.17401,-0.174 -0.30191,-0.41195 -0.52201,-0.522 -0.15563,-0.0778 -0.39897,0.12304 -0.522,0 -0.24608,-0.24608 0.15563,-0.73275 0,-1.04401 -0.5392,-1.0784 -0.84889,0.0317 -1.56602,-1.04401 -0.21582,-0.32374 -0.30618,-0.72028 -0.522,-1.04401 -0.1365,-0.20475 -0.38551,-0.31726 -0.52201,-0.52201 -0.0648,-0.0972 -1.01056,-2.05457 -1.04401,-2.08802 -1.16001,-1.16001 -1.10201,0.29001 -1.56602,-1.56601 -0.0844,-0.33761 0.11005,-0.71387 0,-1.04401 -0.15563,-0.4669 -0.77101,-0.63452 -1.044,-1.04401 -0.21583,-0.32374 -0.30619,-0.72028 -0.52201,-1.04401 -0.1365,-0.20475 -0.38551,-0.31726 -0.522,-0.52201 -0.21583,-0.32373 -0.30619,-0.72027 -0.52201,-1.04401 -0.1365,-0.20474 -0.41196,-0.30191 -0.522,-0.522 -0.0778,-0.15563 0.0778,-0.36638 0,-0.52201 -0.11005,-0.22009 -0.38551,-0.31726 -0.52201,-0.522 -0.21582,-0.32374 -0.30618,-0.72028 -0.522,-1.04401 -0.1365,-0.20475 -0.38551,-0.31726 -0.52201,-0.52201 -0.43164,-0.64747 -0.61236,-1.44055 -1.04401,-2.08802 -0.1365,-0.20475 -0.38551,-0.31726 -0.522,-0.522 -0.21583,-0.32374 -0.30619,-0.72028 -0.52201,-1.04401 -0.63675,-0.95513 -0.66553,-0.0521 -1.04401,-1.56602 -0.0844,-0.33761 0.11005,-0.71386 0,-1.04401 -0.0778,-0.23345 -0.41196,-0.30191 -0.522,-0.522 -0.0778,-0.15564 0.0778,-0.36638 0,-0.52201 -0.11005,-0.2201 -0.44419,-0.28856 -0.52201,-0.522 -0.261,-0.78301 0.261,-1.82702 0,-2.61003 -0.0778,-0.23345 -0.44419,-0.28856 -0.522,-0.522 -0.2201,-0.66029 0.1688,-1.4128 0,-2.08802 -0.0944,-0.37747 -0.42764,-0.66655 -0.52201,-1.04401 -0.0844,-0.33762 0.0844,-0.7064 0,-1.04401 -0.0944,-0.37747 -0.42764,-0.66655 -0.522,-1.04401 -0.0844,-0.33762 0,-0.69601 0,-1.04401 0,-0.17401 0.0778,-0.36638 0,-0.52201 -0.11005,-0.2201 -0.44419,-0.28856 -0.52201,-0.522 -0.11296,-0.33888 0,-3.17986 0,-3.65404 0,-0.174 0.055,-0.35693 0,-0.522 -0.12304,-0.36912 -0.39897,-0.6749 -0.522,-1.04402 -0.1849,-0.55468 0.18489,-1.53333 0,-2.08802 -0.12304,-0.36911 -0.42764,-0.66654 -0.52201,-1.04401 -0.1266,-0.50641 0.16507,-1.07079 0,-1.56601 -0.12304,-0.36911 -0.42764,-0.66655 -0.522,-1.04401 -0.11831,-0.47322 0,-2.00363 0,-2.61003 0,-0.348 0.11004,-0.71386 0,-1.04401 -0.0778,-0.23344 -0.38551,-0.31725 -0.52201,-0.522 -0.59982,-0.89973 -0.522,-0.78906 -0.522,-1.56602 0,-0.174 0.0778,-0.36637 0,-0.522 -0.11005,-0.2201 -0.41196,-0.30191 -0.52201,-0.52201 -0.11614,-0.23228 0.0796,-1.84926 0,-2.08802 -0.0778,-0.23344 -0.41196,-0.3019 -0.52201,-0.522 -0.0778,-0.15563 0,-0.348 0,-0.52201 0,-0.174 0,-0.348 0,-0.522 0,-1.21801 0,-2.43603 0,-3.65404 0,-1.04401 0,-2.08802 0,-3.13203 0,-0.23509 -0.0794,-1.40715 0,-1.56601 0.11005,-0.2201 0.41196,-0.30191 0.52201,-0.52201 0.15563,-0.31126 -0.24608,-0.79793 0,-1.04401 0.69601,-0.696 0.52201,0.87001 0.52201,-0.522"
       id="path3616" />
    <path
       style="fill:none;stroke:#ffa60c;stroke-width:2;stroke-linecap:butt;stroke-linejoin:miter;stroke-miterlimit:4;stroke-opacity:1;stroke-dasharray:none"
       d="m 262.86831,413.6495 c 6.26406,0 12.52813,0 18.79219,0 0.696,0 1.39201,0 2.08802,0 0.87,0 1.74433,0.0866 2.61002,0 0.88284,-0.0883 1.72643,-0.44168 2.61003,-0.522 0.0966,-0.009 6.21096,0.009 6.26406,0 1.08551,-0.18092 2.04434,-0.87668 3.13203,-1.04401 1.20385,-0.18521 2.43602,0 3.65403,0 1.21801,0 2.43603,0 3.65404,0 3.65403,0 7.30807,0 10.9621,0 2.95803,0 5.91606,0 8.87409,0 0.87001,0 1.74534,-0.0961 2.61003,0 0.71303,0.0792 1.37498,0.44277 2.08802,0.522 0.86468,0.0961 1.74001,0 2.61002,0 0.174,0 0.36637,-0.0778 0.52201,0 0.22009,0.11005 0.3019,0.41196 0.522,0.52201 0.15563,0.0778 0.348,0 0.52201,0 0.174,0 0.348,0 0.522,0"
       id="path3618" />
    <path
       style="fill:none;stroke:#ffa60c;stroke-width:2;stroke-linecap:butt;stroke-linejoin:miter;stroke-miterlimit:4;stroke-opacity:1;stroke-dasharray:none"
       d="m 148.54921,369.27907 c -0.0803,-0.0535 -0.96374,-0.9905 -1.04401,-1.04401 -0.32374,-0.21582 -0.72028,-0.30618 -1.04401,-0.522 -0.61424,-0.4095 -0.97544,-1.12308 -1.56602,-1.56602 -0.31126,-0.23345 -0.76889,-0.24688 -1.04401,-0.522 -0.27512,-0.27513 -0.28856,-0.73275 -0.522,-1.04401 -0.29529,-0.39373 -0.69601,-0.69601 -1.04401,-1.04401 -0.78897,-0.78897 -1.94535,-1.77918 -2.61003,-2.61003 -0.39191,-0.4899 -0.65209,-1.07612 -1.04401,-1.56602 -0.30744,-0.3843 -0.74872,-0.65028 -1.04401,-1.04401 -0.46689,-0.62252 -0.61236,-1.44055 -1.04401,-2.08802 -0.31679,-0.47518 -1.33468,-1.10334 -1.56601,-1.56601 -0.0778,-0.15563 0.0778,-0.36637 0,-0.52201 -0.11005,-0.22009 -0.41196,-0.3019 -0.52201,-0.522 -0.0778,-0.15563 0.0778,-0.36637 0,-0.52201 -0.11005,-0.22009 -0.41196,-0.3019 -0.522,-0.522 -0.0778,-0.15563 0,-0.348 0,-0.52201 0,-0.348 0.11004,-0.71386 0,-1.04401 -0.0778,-0.23344 -0.38551,-0.31725 -0.52201,-0.522 -0.21582,-0.32373 -0.348,-0.69601 -0.522,-1.04401 -0.17401,-0.348 -0.42764,-0.66655 -0.52201,-1.04401 -0.0844,-0.33761 0.0844,-0.7064 0,-1.04401 0.31463,-0.9448 -0.84562,-0.97084 -1.04401,-1.56602 -0.11005,-0.33014 0,-0.696 0,-1.04401 0,-0.348 0,-0.696 0,-1.04401 0,-1.04401 0,-2.08802 0,-3.13203 0,-1.39201 0,-2.78402 0,-4.17604 0,-0.42736 -0.11274,-2.27181 0,-2.61002 0.12304,-0.36912 0.39897,-0.6749 0.52201,-1.04401 0.11004,-0.33015 -0.24608,-0.79794 0,-1.04401 0.12303,-0.12304 0.39896,0.12303 0.522,0 0.10672,-0.10672 -0.10348,-1.35905 0,-1.56602 0.1394,-0.27879 1.2912,-1.2912 1.56602,-1.56601 0.174,-0.174 0.348,-0.34801 0.522,-0.52201 0.174,-0.174 0.30191,-0.41195 0.52201,-0.522 0.15563,-0.0778 0.36637,0.0778 0.522,0 0.2201,-0.11005 0.30191,-0.41196 0.52201,-0.52201 0.31126,-0.15563 0.79793,0.24608 1.04401,0 0.12303,-0.12304 -0.12304,-0.39897 0,-0.522 0.24607,-0.24608 0.73274,0.15563 1.04401,0 0.22009,-0.11005 0.3019,-0.41196 0.522,-0.52201 0.13726,-0.0686 1.81505,0 2.08802,0 0.36308,0 2.42125,-0.0944 2.61003,0 0.44019,0.2201 0.57711,0.88838 1.04401,1.04401 0.33014,0.11005 0.73274,-0.15563 1.04401,0 0.15563,0.0778 -0.0778,0.36637 0,0.52201 0.11005,0.22009 0.348,0.348 0.522,0.522 0.174,0.174 0.30191,0.41196 0.52201,0.52201 0.15563,0.0778 0.39896,-0.12304 0.522,0 0.24608,0.24607 -0.15563,0.73274 0,1.04401 0.11005,0.22009 0.41196,0.30191 0.52201,0.522 0.0778,0.15563 -0.0778,0.36638 0,0.52201 0.11005,0.22009 0.41195,0.30191 0.522,0.522 0.27852,0.55703 -0.27851,0.48699 0,1.04401 0.11005,0.2201 0.41196,0.30191 0.52201,0.52201 0.0778,0.15563 -0.055,0.35693 0,0.522 0.12304,0.36912 0.39896,0.6749 0.522,1.04401 0.11005,0.33015 -0.15563,0.73275 0,1.04401 0.11005,0.2201 0.41196,0.30191 0.52201,0.52201 0.16404,0.32809 -0.16405,1.75993 0,2.08802 0.64504,1.29008 0.522,-0.18019 0.522,1.04401 0,0.174 0,0.348 0,0.522 0,0.174 -0.174,0.52201 0,0.52201 0.0336,0 1.43942,-1.43942 1.56602,-1.56602 0.174,-0.174 0.30191,-0.41195 0.522,-0.522 0.72003,-0.36002 0.46692,0.63217 1.04401,-0.52201 0.0778,-0.15563 0,-0.348 0,-0.522 0.174,-0.34801 0.30619,-0.72028 0.52201,-1.04401 0.27299,-0.4095 0.82391,-0.60382 1.04401,-1.04401 0.0778,-0.15563 -0.12304,-0.39897 0,-0.52201 0.12304,-0.12304 0.39897,0.12304 0.522,0 0.12304,-0.12304 -0.0778,-0.36637 0,-0.522 0.11005,-0.2201 0.38551,-0.31726 0.52201,-0.52201 0.21582,-0.32373 0.30618,-0.72027 0.522,-1.04401 0.14297,-0.21445 1.35156,-1.42304 1.56602,-1.56601 0.32373,-0.21583 0.72027,-0.30619 1.04401,-0.52201 0.20475,-0.1365 0.28856,-0.44419 0.522,-0.522 0.33015,-0.11005 0.71387,0.11005 1.04401,0 0.23345,-0.0778 0.28856,-0.44419 0.52201,-0.52201 0.66029,-0.22009 1.42773,0.2201 2.08802,0 0.23345,-0.0778 0.30191,-0.41195 0.522,-0.522 0.18878,-0.0944 2.24695,0 2.61003,0 0.36307,0 2.42125,-0.0944 2.61002,0 0.2201,0.11005 0.30191,0.41195 0.52201,0.522 0.15563,0.0778 0.348,0 0.522,0 0.17401,0.174 0.30191,0.41196 0.52201,0.52201 0.15563,0.0778 0.39897,-0.12304 0.522,0 0.12304,0.12303 -0.12303,0.39896 0,0.522 0.12304,0.12304 0.39897,-0.12304 0.52201,0 0.12304,0.12304 -0.12304,0.39897 0,0.52201 0.12304,0.12303 0.39897,-0.12304 0.522,0 0.12304,0.12303 -0.12303,0.39896 0,0.522 0.12304,0.12304 0.39897,-0.12304 0.52201,0 0.24608,0.24608 -0.15563,0.73275 0,1.04401 0.11147,0.22293 0.93254,0.82108 1.04401,1.04401 0.15563,0.31127 -0.15563,0.73275 0,1.04401 0.11005,0.2201 0.41196,0.30191 0.52201,0.52201 0.15563,0.31126 -0.15564,0.73274 0,1.04401 0.11004,0.22009 0.41195,0.30191 0.522,0.522 0.0794,0.15887 0,1.33093 0,1.56602 0,0.36307 0.0944,2.42125 0,2.61002 -0.11005,0.2201 -0.41196,0.30191 -0.522,0.52201 -0.15564,0.31126 0.15563,0.73274 0,1.04401 -0.11005,0.22009 -0.41196,0.30191 -0.52201,0.522 -0.0778,0.15564 0.055,0.35694 0,0.52201 -0.12304,0.36911 -0.39897,0.6749 -0.522,1.04401 -0.11005,0.33014 0.24607,0.79793 0,1.04401 -0.12304,0.12304 -0.39897,-0.12304 -0.52201,0 -0.12304,0.12304 0.0778,0.36637 0,0.522 -0.174,0.17401 -0.348,0.34801 -0.52201,0.52201 -0.174,0.174 -0.41195,0.30191 -0.522,0.522 -0.15563,0.31127 0.24608,0.79794 0,1.04401 -0.12304,0.12304 -0.39897,-0.12303 -0.52201,0 -0.12303,0.12304 0.12304,0.39897 0,0.52201 -0.12303,0.12304 -0.39896,-0.12304 -0.522,0 -0.12304,0.12304 0.0778,0.36637 0,0.522 -0.11005,0.2201 -0.41196,0.30191 -0.52201,0.52201 -0.0778,0.15563 0.0778,0.36637 0,0.522 -0.11004,0.2201 -0.41195,0.30191 -0.522,0.52201 -0.0778,0.15563 0.0778,0.36637 0,0.522 -0.11005,0.2201 -0.41196,0.30191 -0.52201,0.52201 -0.0778,0.15563 0.0778,0.36637 0,0.522 -0.22009,0.4402 -0.82391,0.60382 -1.04401,1.04401 -0.0778,0.15564 0.12304,0.39897 0,0.52201 -0.24607,0.24607 -0.79793,-0.24608 -1.04401,0 -0.12303,0.12304 0.12304,0.39897 0,0.522 -0.12303,0.12304 -0.39896,-0.12303 -0.522,0 -0.12304,0.12304 0.0778,0.36638 0,0.52201 -0.11005,0.2201 -0.41196,0.30191 -0.52201,0.522 -0.0778,0.15564 0.12304,0.39897 0,0.52201 -0.12303,0.12304 -0.36637,-0.0778 -0.522,0 -0.2201,0.11005 -0.348,0.348 -0.52201,0.522 -0.174,0.17401 -0.41195,0.30191 -0.522,0.52201 -0.0778,0.15563 0.12304,0.39897 0,0.522 -0.12304,0.12304 -0.39897,-0.12303 -0.52201,0 -1.08004,1.08005 1.65046,-0.0422 -0.522,1.04401 -0.15563,0.0778 -0.36637,-0.0778 -0.52201,0 -0.22009,0.11005 -0.348,0.34801 -0.522,0.52201 -0.174,0.174 -0.41196,0.30191 -0.52201,0.522 -0.0778,0.15564 0.12304,0.39897 0,0.52201 -0.12303,0.12304 -0.39896,-0.12304 -0.522,0 -0.12304,0.12304 0.0778,0.36637 0,0.52201 -0.3132,0.6264 -1.25281,0.9396 -1.56602,1.56601 -0.0778,0.15563 0.12304,0.39897 0,0.52201 -0.12303,0.12303 -0.39896,-0.12304 -0.522,0 -0.12304,0.12303 0.0778,0.36637 0,0.522 -0.11005,0.2201 -0.41196,0.30191 -0.52201,0.52201 -0.0778,0.15563 0.12304,0.39896 0,0.522 -0.12303,0.12304 -0.39896,-0.12304 -0.522,0 -0.12304,0.12304 0.12304,0.39897 0,0.52201 -0.12304,0.12303 -0.39897,-0.12304 -0.52201,0 -0.12303,0.12303 0.0778,0.36637 0,0.522 -0.11004,0.2201 -0.41195,0.30191 -0.522,0.52201 -0.0778,0.15563 0.12304,0.39896 0,0.522 -0.12304,0.12304 -0.39897,-0.12304 -0.52201,0 -0.12303,0.12304 0.12304,0.39897 0,0.52201 -0.12303,0.12303 -0.39896,-0.12304 -0.522,0 -0.12304,0.12303 0.12304,0.39896 0,0.522 -1.08005,1.08005 0.0422,-1.65045 -1.04401,0.52201 0,1.39201 0.174,-0.17401 -0.52201,0.522 -0.12303,0.12304 0.12304,0.39897 0,0.52201 -0.12303,0.12303 -0.39896,-0.12304 -0.522,0 -0.12304,0.12303 0.12304,0.39896 0,0.522 -0.24608,0.24608 -0.79794,-0.24607 -1.04401,0 -0.12304,0.12304 0.174,0.52201 0,0.52201 -0.71743,0 -1.39202,-0.34801 -4.17604,-0.52201 z"
       id="path3622" />
    <path
       style="fill:none;stroke:#ffa60c;stroke-width:2;stroke-linecap:butt;stroke-linejoin:miter;stroke-miterlimit:4;stroke-opacity:1;stroke-dasharray:none"
       d="m 127.147,340.04679 c 0.50861,0.0825 1.0708,-0.16507 1.56602,0 0.23344,0.0778 0.28855,0.44419 0.522,0.522 0.33015,0.11005 0.7064,-0.0844 1.04401,0 0.37746,0.0944 0.68276,0.37751 1.04401,0.52201 0.51089,0.20435 1.05513,0.31765 1.56602,0.522 0.36125,0.1445 0.68275,0.37751 1.04401,0.52201 0.51088,0.20435 1.05512,0.31765 1.56601,0.522 0.36125,0.1445 0.68276,0.37751 1.04401,0.52201 1.02177,0.40871 2.08802,0.69601 3.13203,1.04401 0.52201,0.174 1.07387,0.27593 1.56602,0.522 0.56114,0.28057 1.00487,0.76344 1.56601,1.04401 0.9843,0.49215 2.14773,0.55186 3.13203,1.04401 0.56114,0.28057 1.00488,0.76344 1.56602,1.04401 0.49215,0.24608 1.04401,0.34801 1.56601,0.52201 0.52201,0.174 1.03221,0.38855 1.56602,0.522 0.44659,0.11165 2.08827,0 2.61002,0 0.174,0 0.35694,-0.055 0.52201,0 0.36911,0.12304 0.72027,0.30619 1.04401,0.52201 0.20475,0.1365 0.28856,0.44419 0.522,0.522 0.33015,0.11005 0.7064,-0.0844 1.04401,0 0.37747,0.0944 0.66655,0.42764 1.04401,0.52201 0.33762,0.0844 0.7064,-0.0844 1.04401,0 0.37747,0.0944 0.6749,0.39897 1.04401,0.522 0.16508,0.055 0.35694,-0.055 0.52201,0 0.36911,0.12304 0.66655,0.42764 1.04401,0.52201 0.33761,0.0844 0.7064,-0.0844 1.04401,0 0.37746,0.0944 0.66655,0.42764 1.04401,0.522 0.33761,0.0844 0.69601,0 1.04401,0 0.348,0.17401 0.6749,0.39897 1.04401,0.52201 0.16507,0.055 0.36637,-0.0778 0.522,0 0.2201,0.11005 0.30191,0.41196 0.52201,0.522 0.20697,0.10349 1.4593,-0.10671 1.56601,0 0.12304,0.12304 -0.12303,0.39897 0,0.52201 0.24608,0.24607 0.71387,-0.11005 1.04401,0 0.36912,0.12304 0.6749,0.39897 1.04401,0.522 0.33015,0.11005 0.73275,-0.15563 1.04401,0 0.2201,0.11005 0.30191,0.41196 0.52201,0.52201 1.28567,0.64284 -0.47123,-1.51524 1.56602,0.522 0.12303,0.12304 -0.12304,0.39897 0,0.52201 0.24607,0.24608 0.73274,-0.15563 1.04401,0 1.11573,0.55787 -0.0717,0.48614 1.04401,1.04401 0.15563,0.0778 0.39896,-0.12304 0.522,0 0.12304,0.12304 -0.12304,0.39897 0,0.522 0.10672,0.10672 1.35904,-0.10348 1.56602,0 0.22009,0.11005 0.3019,0.41196 0.522,0.52201 0.31126,0.15563 0.73275,-0.15563 1.04401,0 0.2201,0.11005 0.30191,0.41196 0.52201,0.522 0.15563,0.0778 0.36637,-0.0778 0.522,0 1.29009,0.64505 -0.18018,0.52201 1.04401,0.52201"
       id="path3624" />
    <path
       style="fill:none;stroke:#ffa60c;stroke-width:2;stroke-linecap:butt;stroke-linejoin:miter;stroke-miterlimit:4;stroke-opacity:1;stroke-dasharray:none"
       d="m 179.86951,354.66293 c 0.32696,0.53942 1.29325,1.02048 1.56602,1.56601 0.0778,0.15564 -0.0778,0.36638 0,0.52201 0.22009,0.44019 0.82391,0.60382 1.04401,1.04401 0.15563,0.31126 -0.15564,0.73275 0,1.04401 0.11004,0.2201 0.41195,0.30191 0.522,0.522 0.15563,0.31127 -0.15563,0.73275 0,1.04402 0.0679,0.1359 0.93007,0.63594 0.52201,1.04401 -0.12304,0.12303 -0.34801,0 -0.52201,0 -0.174,0 -0.348,0 -0.522,0 -1.56602,0 -3.13203,0 -4.69805,0 -0.32734,0 -2.02354,-0.0645 -2.08802,0 -0.12304,0.12303 0.12304,0.39896 0,0.522 -0.12304,0.12304 -0.348,0 -0.522,0 -0.17401,0 -0.69601,0 -0.52201,0 0.348,0 0.73275,0.15563 1.04401,0 0.15563,-0.0778 -0.0778,-0.36637 0,-0.522 0.2201,-0.4402 0.82391,-0.60382 1.04401,-1.04401 0.0778,-0.15564 -0.0778,-0.36638 0,-0.52201 0.25683,-0.51367 1.83119,-1.57435 2.08802,-2.08802 0.0778,-0.15563 -0.12304,-0.39897 0,-0.52201 0.12304,-0.12303 0.39897,0.12304 0.52201,0 0.10671,-0.10671 -0.10349,-1.35904 0,-1.56601 0.98518,-1.97036 1.16228,2.67939 0.522,-1.04401 z"
       id="path3626" />
    <path
       style="fill:none;stroke:#ffa60c;stroke-width:2;stroke-linecap:butt;stroke-linejoin:miter;stroke-miterlimit:4;stroke-opacity:1;stroke-dasharray:none"
       d="m 127.147,335.34874 c 0.174,0.174 0.348,0.34801 0.52201,0.52201 0.348,0.174 0.76888,0.24688 1.04401,0.522 0.27512,0.27512 0.30618,0.72028 0.522,1.04401 0.273,0.4095 0.82391,0.60382 1.04401,1.04401 0.0778,0.15563 -0.0778,0.36638 0,0.52201 1.08623,2.17246 -0.036,-0.55804 1.04401,0.522 0.24608,0.24608 -0.15563,0.73275 0,1.04401 0.18666,0.37331 1.11282,0.74861 0.52201,1.04401 -0.31127,0.15563 -0.71387,-0.11005 -1.04401,0 -0.23345,0.0778 -0.28856,0.44419 -0.52201,0.52201 -0.33014,0.11005 -0.71386,-0.11005 -1.04401,0 -0.23345,0.0778 -0.28856,0.44419 -0.522,0.522 -0.33015,0.11005 -0.7064,-0.0844 -1.04401,0 -0.37747,0.0944 -0.66655,0.42764 -1.04401,0.52201 -0.33762,0.0844 -0.71387,-0.11005 -1.04401,0 -0.23345,0.0778 -0.34801,0.348 -0.52201,0.522 -0.348,0.17401 -0.66655,0.42764 -1.04401,0.52201 -0.54074,0.13518 -1.48946,0 -2.08802,0"
       id="path3628" />
    <path
       style="fill:none;stroke:#ffa60c;stroke-width:2;stroke-linecap:butt;stroke-linejoin:miter;stroke-miterlimit:4;stroke-opacity:1;stroke-dasharray:none"
       d="m 124.53698,334.30473 c 1.46982,0.0324 0.13292,1.17694 0.522,1.56602 0.27512,0.27512 0.76889,0.24688 1.04401,0.522 0.27512,0.27512 0.24688,0.76889 0.52201,1.04401 1.08004,1.08005 -0.0422,-1.65045 1.04401,0.52201 0.0778,0.15563 -0.0778,0.36637 0,0.522 0.11004,0.2201 0.41195,0.30191 0.522,0.52201 0.0778,0.15563 -0.0778,0.36637 0,0.522 0.11005,0.2201 0.41196,0.30191 0.52201,0.52201 0.0778,0.15563 -0.12304,0.39897 0,0.522 0.12303,0.12304 0.36637,-0.0778 0.522,0 0.2201,0.11005 0.30191,0.41196 0.52201,0.52201 0.15563,0.0778 0.39896,-0.12304 0.522,0 0.12304,0.12304 0.12304,0.39897 0,0.522 -0.12304,0.12304 -0.36637,-0.0778 -0.522,0 -0.2201,0.11005 -0.28856,0.44419 -0.52201,0.52201 -0.33014,0.11005 -0.7064,-0.0844 -1.04401,0 -0.37746,0.0944 -0.66655,0.42764 -1.04401,0.522 -0.33761,0.0844 -0.7064,-0.0844 -1.04401,0 -0.37746,0.0944 -0.66655,0.42764 -1.04401,0.52201 -0.33761,0.0844 -0.69601,0 -1.04401,0 -0.174,0 -0.36637,-0.0778 -0.522,0 -1.29009,0.64504 0.18018,0.522 -1.04401,0.522"
       id="path3630" />
    <path
       style="fill:none;stroke:#ffa60c;stroke-width:2;stroke-linecap:butt;stroke-linejoin:miter;stroke-miterlimit:4;stroke-opacity:1;stroke-dasharray:none"
       d="m 121.40494,335.87075 c 0.4402,0.22009 0.60382,0.82391 1.04402,1.04401 0.15563,0.0778 0.39896,-0.12304 0.522,0 0.27512,0.27512 0.30618,0.72027 0.52201,1.04401 0.13649,0.20475 0.348,0.348 0.522,0.522 0.174,0.174 0.31726,0.38551 0.52201,0.52201 0.32373,0.21582 0.76888,0.24688 1.04401,0.522 0.12303,0.12304 -0.0778,0.36638 0,0.52201 0.11004,0.22009 0.348,0.348 0.522,0.522 0.174,0.174 0.30191,0.41196 0.52201,0.52201 0.15563,0.0778 0.36637,-0.0778 0.522,0 0.2201,0.11005 0.348,0.348 0.52201,0.522 0.174,0.174 0.41195,0.30191 0.522,0.52201 0.0778,0.15563 0,0.348 0,0.522 0,0.174 0.12304,0.39897 0,0.52201 -0.24607,0.24607 -0.73275,-0.15563 -1.04401,0 -0.2201,0.11005 -0.30191,0.41196 -0.522,0.522 -0.23228,0.11614 -1.84927,-0.0796 -2.08802,0 -0.23345,0.0778 -0.30191,0.41196 -0.52201,0.52201 -0.31126,0.15563 -0.73275,-0.15563 -1.04401,0 -0.2201,0.11005 -0.30191,0.41196 -0.522,0.522 -0.15887,0.0794 -1.33093,0 -1.56602,0"
       id="path3632" />
    <path
       style="color:#000000;fill:none;stroke:#c5dde2;stroke-width:2;stroke-linecap:butt;stroke-linejoin:round;stroke-miterlimit:4;stroke-opacity:0.8033473;stroke-dashoffset:0;marker:none;visibility:visible;display:inline;overflow:visible;enable-background:accumulate"
       inkscape:transform-center-x="-33.15232"
       inkscape:transform-center-y="26.061882"
       d="m 519.85935,375.8557 44.2777,46.29794 c 9.00704,7.08066 12.23975,23.06704 7.24823,35.84389 l -1.95775,5.01127 c -4.71505,11.80922 -21.87738,16.9223 -33.09824,17.58999 -22.81264,-10.6606 -33.79326,-34.63219 -51.06376,-53.60601 -9.00704,-7.08067 -12.23975,-23.06705 -7.24824,-35.84389 l 1.95775,-5.01127 c 4.99152,-12.77684 30.87726,-17.36258 39.88431,-10.28192 z"
       id="rect3634"
       sodipodi:nodetypes="ccccccccc" />
    <rect
       transform="matrix(0.66752691,0.74458567,-0.74475897,0.66733356,0,0)"
       style="color:#000000;fill:none;stroke:#c5dde2;stroke-width:2;stroke-linecap:butt;stroke-linejoin:round;stroke-miterlimit:4;stroke-opacity:0.8033473;stroke-dasharray:none;stroke-dashoffset:0;marker:none;visibility:visible;display:inline;overflow:visible;enable-background:accumulate"
       id="rect3636"
       width="158.12057"
       height="82.961159"
       x="491.20914"
       y="-150.98238"
       ry="37.415615" />
    <path
       id="path3638"
       d="M 522.30484,356.22895 461.75225,413.6495"
       style="fill:none;stroke:#c5dde2;stroke-width:1;stroke-linecap:butt;stroke-linejoin:miter;stroke-miterlimit:4;stroke-opacity:0.8033473;stroke-dasharray:3, 3;stroke-dashoffset:0" />
    <path
       id="path3640"
       d="m 567.34215,425.27009 c -21.04799,2.91672 -51.06475,11.83244 -37.591,51.31739"
       style="fill:none;stroke:#c5dde2;stroke-width:1;stroke-linecap:butt;stroke-linejoin:miter;stroke-miterlimit:4;stroke-opacity:0.8033473;stroke-dasharray:3, 3;stroke-dashoffset:0"
       inkscape:transform-center-x="-66.393769"
       inkscape:transform-center-y="51.895451"
       sodipodi:nodetypes="cc" />
    <path
       id="path3642"
       d="M 407.98573,292.54433 513.95276,410.51747"
       style="fill:none;stroke:#c5dde2;stroke-width:1;stroke-linecap:butt;stroke-linejoin:miter;stroke-miterlimit:4;stroke-opacity:0.8033473;stroke-dasharray:3, 3;stroke-dashoffset:0" />
    <path
       id="path3644"
       d="m 570.228,460.95974 c -34.495,14.15139 -58.27913,-13.75268 -91.23186,-72.31648"
       style="fill:none;stroke:#c5dde2;stroke-width:1;stroke-linecap:butt;stroke-linejoin:miter;stroke-miterlimit:4;stroke-opacity:0.8033473;stroke-dasharray:3, 3;stroke-dashoffset:0"
       inkscape:transform-center-x="-33.063102"
       inkscape:transform-center-y="26.290173"
       sodipodi:nodetypes="cc" />
    <path
       id="path3646"
       d="m 447.65811,275.84017 c 0.61489,0.76861 1.47314,1.31941 2.08802,2.08802 1.20585,1.50731 0.6876,1.48968 2.08803,2.61002 0.48989,0.39192 1.12239,0.6004 1.56601,1.04401 0.44362,0.44362 0.69601,1.04402 1.04401,1.56602 0.69601,0.69601 1.34068,1.44744 2.08802,2.08802 0.47634,0.40829 1.07612,0.65209 1.56602,1.04401 0.76861,0.61489 1.39201,1.39201 2.08802,2.08802 1.21801,1.21801 2.43602,2.43602 3.65403,3.65404 0.348,0.348 0.65029,0.74872 1.04401,1.04401 0.31127,0.23344 0.76889,0.24688 1.04401,0.522 0.27512,0.27512 0.28856,0.73275 0.52201,1.04401 0.87697,1.16929 2.25506,1.96274 3.13203,3.13203 0.23344,0.31127 0.24688,0.76889 0.522,1.04401 0.27512,0.27512 0.73275,0.28856 1.04401,0.52201 1.82658,1.36993 0.42274,0.56365 1.56602,2.08802 2.25782,2.25782 0.0818,-0.13829 1.56601,2.08802 0.273,0.40949 0.77102,0.63451 1.04401,1.04401 1.89242,3.78484 -0.55024,-0.82537 1.04401,1.56601 0.21583,0.32374 0.30619,0.72028 0.52201,1.04401 0.1365,0.20475 0.3855,0.31726 0.522,0.52201 0.57951,0.86926 0.96125,2.32566 1.56602,3.13203 2.25782,2.25782 0.0818,-0.13829 1.56601,2.08802 0.273,0.40949 0.77102,0.63451 1.04401,1.04401 1.15007,0.26288 0.27593,1.07386 0.52201,1.56601 0.22009,0.4402 0.82391,0.60382 1.04401,1.04401 0.0778,0.15564 -0.12304,0.39897 0,0.52201 0.12304,0.12304 0.44419,-0.15563 0.522,0 0.15564,0.31126 -0.11005,0.71386 0,1.04401 0.0942,0.28253 1.33739,1.22307 1.56602,1.56601 0.21582,0.32374 0.30618,0.72028 0.522,1.04401 0.1365,0.20475 0.38551,0.31726 0.52201,0.52201 0.21582,0.32373 0.30618,0.72028 0.522,1.04401 0.1365,0.20475 0.38551,0.31726 0.52201,0.522 0.43164,0.64747 0.61236,1.44056 1.04401,2.08802 0.68396,1.02594 0.36005,0.0181 1.04401,1.04401 0.21582,0.32374 0.30618,0.72028 0.522,1.04401 0.1365,0.20475 0.38551,0.31726 0.52201,0.52201 0.21582,0.32373 0.24688,0.76889 0.522,1.04401 0.27512,0.27512 0.72028,0.30618 1.04401,0.522 0.20475,0.1365 0.34801,0.34801 0.52201,0.52201 0.348,0.348 0.74872,0.65029 1.04401,1.04401 0.23345,0.31126 0.30618,0.72028 0.522,1.04401 0.51208,0.76812 1.57595,1.3199 2.08802,2.08802 0.21583,0.32373 0.30619,0.72028 0.52201,1.04401 0.1365,0.20475 0.44419,0.28856 0.522,0.52201 0.11005,0.33014 -0.11004,0.71386 0,1.04401 0.15564,0.46689 0.77102,0.63451 1.04401,1.04401 0.21583,0.32373 0.30619,0.72027 0.52201,1.04401 0.1365,0.20474 0.38551,0.31725 0.522,0.522 0.21583,0.32373 0.30619,0.72028 0.52201,1.04401 0.1365,0.20475 0.38551,0.31726 0.522,0.52201 0.21583,0.32373 0.28856,0.73274 0.52201,1.04401 0.29529,0.39372 0.74872,0.65029 1.04401,1.04401 0.23345,0.31126 0.30618,0.72027 0.52201,1.04401 0.13649,0.20474 0.3855,0.31725 0.522,0.522 0.43165,0.64747 0.61237,1.44055 1.04401,2.08802 0.273,0.4095 0.88838,0.57712 1.04401,1.04401 0.11005,0.33015 -0.11005,0.71387 0,1.04401 0.1271,0.38129 1.96093,1.70674 2.08802,2.08802 0.11005,0.33015 -0.11005,0.71387 0,1.04401 0.1271,0.38129 1.96093,1.70674 2.08802,2.08802 0.11005,0.33015 -0.19304,0.75446 0,1.04401 0.21582,0.32374 0.76889,0.24689 1.04401,0.52201 0.12304,0.12303 -0.0778,0.36637 0,0.522 0.11005,0.2201 0.41196,0.30191 0.52201,0.52201 0.0778,0.15563 -0.12304,0.39896 0,0.522 0.12303,0.12304 0.39896,-0.12304 0.522,0 0.12304,0.12304 -0.0778,0.36638 0,0.52201 0.2201,0.44019 0.82391,0.60381 1.04401,1.04401 0.0778,0.15563 -0.0778,0.36637 0,0.522 0.11005,0.2201 0.38551,0.31726 0.52201,0.52201 0.21582,0.32373 0.30618,0.72027 0.522,1.04401 0.1365,0.20474 0.41196,0.30191 0.52201,0.522 0.0778,0.15563 -0.12304,0.39897 0,0.52201 0.12303,0.12304 0.39896,-0.12304 0.522,0 0.24608,0.24607 -0.24607,0.79793 0,1.04401 0.12304,0.12304 0.39897,-0.12304 0.52201,0 0.24607,0.24607 -0.24608,0.79793 0,1.04401 0.12303,0.12304 0.39896,-0.12304 0.522,0 0.12304,0.12304 0,0.348 0,0.522 0,0.34801 -0.15563,0.73275 0,1.04401 0.0778,0.15563 0.39897,-0.12303 0.52201,0 0.24607,0.24608 -0.15564,0.73275 0,1.04401 0.64504,1.29009 0.522,-0.18018 0.522,1.04401"
       style="fill:none;stroke:#1e9103;stroke-width:3;stroke-linecap:butt;stroke-linejoin:miter;stroke-miterlimit:4;stroke-opacity:1;stroke-dasharray:none" />
    <path
       id="path3648"
       d="m 515.56344,367.35248 c 0.67782,0.63376 1.35564,1.26752 2.03346,1.90127 0.19366,0.18107 0.35804,0.42638 0.58099,0.54322 0.24927,0.13061 0.5486,0.0488 0.79786,0.17942 0.22294,0.11685 0.3627,0.41327 0.58099,0.54323 0.34509,0.20553 0.74326,0.24548 1.08836,0.45102 0.54564,0.32497 0.91547,1.0112 1.45246,1.35804 0.33965,0.21934 0.74327,0.2455 1.08836,0.45103 0.21828,0.12996 0.38733,0.36215 0.58099,0.54323 0.38732,0.36214 0.77465,0.72428 1.16198,1.08643 0.29048,0.27161 0.54928,0.60672 0.87147,0.81483 0.33965,0.21934 0.74874,0.23166 1.08836,0.45103 0.32219,0.20811 0.58099,0.54321 0.87148,0.81482 0.67782,0.63376 1.35564,1.26752 2.03346,1.90127 1.83979,1.72019 3.67958,3.44038 5.51937,5.16058 1.25881,1.17697 2.51762,2.35395 3.77642,3.53092 0.23782,0.22237 1.31109,1.1035 1.45246,1.35805 0.15429,0.27781 0.19326,0.64486 0.36411,0.90703 0.18586,0.28519 1.44088,1.34721 1.74296,1.62965 0.0968,0.0905 0.22148,0.14739 0.2905,0.27162 0.84976,1.53003 -0.18972,0.38919 0.94509,1.45024 1.54931,1.44857 3.0986,2.89716 4.6479,4.34574 0.22177,0.20735 1.60548,1.38213 1.74296,1.62966 0.15429,0.27781 0.20982,0.62922 0.36411,0.90703 0.138,0.24848 0.38732,0.36215 0.58099,0.54322 0.58098,0.54321 1.16197,1.08643 1.74296,1.62966 0.0968,0.0905 0.19365,0.18107 0.29049,0.27161 0.0968,0.0905 0.23621,0.1364 0.29049,0.2716 0.0768,0.19122 -0.003,0.4442 0.0736,0.63542 0.0777,0.19368 1.33763,1.25067 1.45246,1.35804 1.06515,0.9959 2.13029,1.9918 3.19544,2.98771 1.06514,0.9959 2.13028,1.9918 3.19542,2.9877 0.20059,0.18756 1.1066,0.94859 1.16198,1.08643 0.0768,0.19122 -0.003,0.44421 0.0736,0.63543 0.11547,0.28766 1.3342,1.06344 1.45247,1.35804 0.0768,0.19122 -0.003,0.4442 0.0736,0.63541 0.11054,0.27539 1.63241,1.35428 1.74296,1.62966 0.0768,0.19122 -0.024,0.45971 0.0736,0.63541 0.0998,0.17971 1.08096,0.88463 1.16197,1.08644 0.0768,0.19122 -0.003,0.44419 0.0736,0.63541 0.0543,0.1352 0.19366,0.18107 0.29049,0.27161 0.19367,0.18108 0.44299,0.29474 0.58099,0.54322 0.0976,0.17569 -0.003,0.44419 0.0736,0.63541 0.12064,0.30055 0.97909,0.75716 1.16197,1.08644 0.15428,0.2778 0.20981,0.62922 0.36411,0.90702 0.14431,0.25985 1.45759,1.36284 1.74296,1.62966 0.0968,0.0905 0.23621,0.13641 0.29049,0.27161 0.0768,0.19121 -0.003,0.44419 0.0736,0.63541 0.11442,0.28504 1.04755,0.8014 1.16197,1.08644 0.0768,0.19122 -0.003,0.4442 0.0736,0.63541 0.10746,0.26772 1.63799,1.36818 1.74296,1.62966 0.0543,0.1352 -0.27116,0.22859 -0.21688,0.36381 1.32241,1.23644 0.11888,-0.15595 0.6546,1.17862 0.0988,0.24602 1.14183,0.91258 1.16198,1.08644 0.0174,0.14977 -0.23423,0.21404 -0.21689,0.36381 0.0174,0.14977 0.23622,0.13641 0.2905,0.27161 0.0768,0.19121 -0.003,0.44419 0.0736,0.6354 0.14564,0.36282 0.72584,0.45202 0.87148,0.81484 0.0768,0.19121 0.0491,0.4236 0.0736,0.6354 0.19366,0.18107 0.44299,0.29475 0.58099,0.54323 0.0976,0.17568 -0.024,0.45971 0.0736,0.63541 0.13799,0.24848 0.44298,0.29475 0.58098,0.54321 0.0976,0.17569 -0.003,0.4442 0.0736,0.63542 0.14564,0.36281 0.72583,0.45202 0.87148,0.81483 0.0768,0.19122 -0.003,0.4442 0.0736,0.63541 0.0722,0.17981 0.85642,0.68493 0.87148,0.81482 0.0174,0.14977 -0.23424,0.21405 -0.21688,0.36382 0.0174,0.14976 0.19366,0.18107 0.29049,0.2716 0.19366,0.18108 0.38732,0.36215 0.58099,0.54322 0.77465,0.7243 -0.0245,-0.21181 0.0736,0.63541 0.0201,0.17387 1.06322,0.84042 1.16198,1.08644 0.0768,0.19122 -0.003,0.4442 0.0736,0.63541 0.10856,0.27043 0.54629,0.24368 0.58099,0.54322 0.0174,0.14977 -0.23424,0.21404 -0.21688,0.3638 0.0151,0.12991 0.79929,0.63502 0.87148,0.81483 0.0768,0.19121 0.0491,0.42362 0.0736,0.63542 0.19367,0.18108 0.44299,0.29474 0.58099,0.54322 0.0976,0.17569 -0.003,0.44419 0.0736,0.6354 0.0722,0.17982 0.85643,0.68494 0.87148,0.81483 0.0174,0.14977 -0.23423,0.21404 -0.21689,0.3638 0.0368,0.31772 0.83468,0.49714 0.87149,0.81484 0.0174,0.14977 -0.23423,0.21403 -0.21687,0.3638 0.002,0.0204 0.80102,0.74895 0.87147,0.81483"
       style="fill:none;stroke:#1e9103;stroke-width:3;stroke-linecap:butt;stroke-linejoin:miter;stroke-miterlimit:4;stroke-opacity:1;stroke-dasharray:none" />
    <path
       id="path3650"
       d="m 534.70524,485.48309 c -3.99415,-3.61408 -7.98831,-7.22815 -11.98246,-10.84223 -0.77081,-0.69745 -1.54161,-1.3949 -2.31241,-2.09236 -0.14015,-0.12681 -0.28029,-0.25362 -0.42044,-0.38043 -0.14014,-0.12681 -0.25919,-0.29875 -0.42043,-0.38042 -0.1803,-0.0913 -0.39656,-0.0335 -0.57684,-0.12476 -0.16871,-0.0855 -1.33625,-1.20909 -1.47153,-1.3315 -0.14014,-0.12681 -0.25919,-0.29874 -0.42044,-0.38043 -0.18029,-0.0913 -0.40032,-0.023 -0.57683,-0.12475 -0.25501,-0.14686 -1.16751,-1.05641 -1.47153,-1.3315 -0.14014,-0.12681 -0.2592,-0.29874 -0.42044,-0.38042 -0.18029,-0.0913 -0.39655,-0.0335 -0.57683,-0.12475 -0.16124,-0.0817 -0.28028,-0.25363 -0.42043,-0.38044 -0.28029,-0.25361 -0.56059,-0.50723 -0.84087,-0.76085 -0.14015,-0.12682 -0.26259,-0.28949 -0.42044,-0.38043 -0.24963,-0.14375 -0.54439,-0.1546 -0.78705,-0.31496 -0.30696,-0.20288 -0.56059,-0.50724 -0.84088,-0.76086 -0.21022,-0.19022 -0.42044,-0.38043 -0.63066,-0.57065 -0.7708,-0.69745 -1.54161,-1.3949 -2.31241,-2.09236 -0.49051,-0.44383 -0.9277,-0.99178 -1.47152,-1.33149 -0.41838,-0.26135 -0.94241,-0.18588 -1.36389,-0.43972 -0.4696,-0.28281 -0.81635,-0.80464 -1.26132,-1.14129 -0.45109,-0.34128 -0.9666,-0.54431 -1.41769,-0.8856 -0.44496,-0.33665 -0.7877,-0.86853 -1.26132,-1.14129 -0.35301,-0.2033 -0.79717,-0.0554 -1.15366,-0.24949 -1.30652,-0.71145 -0.6736,-0.89196 -1.68175,-1.52171 -0.24569,-0.15345 -0.54137,-0.1615 -0.78705,-0.31497 -0.38845,-0.24266 -0.64798,-0.74687 -1.05109,-0.95108 -0.18029,-0.0913 -0.40033,-0.023 -0.57684,-0.12474 -0.61922,-0.35661 -1.06253,-1.16511 -1.68175,-1.52172 -0.1765,-0.10165 -0.39654,-0.0335 -0.57682,-0.12475 -0.16125,-0.0817 -0.2803,-0.25361 -0.42044,-0.38042 -0.14015,-0.12682 -0.2803,-0.25363 -0.42044,-0.38044 -0.7708,-0.69745 -1.54161,-1.3949 -2.31241,-2.09236 -0.49051,-0.44383 -0.98102,-0.88766 -1.47153,-1.3315 -0.14015,-0.12681 -0.30977,-0.21607 -0.42044,-0.38043 -0.12372,-0.18378 -0.1403,-0.45234 -0.26404,-0.6361 -0.23309,-0.34617 -1.07006,-0.80808 -1.26132,-1.14129 -0.0707,-0.12317 0.002,-0.31179 -0.0538,-0.4459 -0.0874,-0.21078 -0.70837,-0.53 -0.84087,-0.76085 -0.11178,-0.19478 -0.15225,-0.44135 -0.26404,-0.63612 -0.05,-0.087 -0.14015,-0.12681 -0.21022,-0.19021 -0.1784,-0.16142 -1.17416,-0.98946 -1.26131,-1.14129 -0.0707,-0.12317 0.002,-0.31179 -0.0538,-0.44589 -0.0394,-0.0948 -0.14014,-0.12681 -0.21022,-0.19022 -0.14015,-0.12681 -0.28029,-0.25362 -0.42043,-0.38043 -0.21022,-0.19021 -0.42044,-0.38043 -0.63066,-0.57064 -0.0701,-0.0634 -0.19754,-0.0851 -0.21022,-0.19022 -0.0127,-0.1051 0.16908,-0.15058 0.1564,-0.25568 -0.0189,-0.15651 -0.95991,-0.73138 -1.05109,-0.95107 -0.17852,-1.47886 0.12446,0.29986 -0.26406,-0.63611 -0.0557,-0.13411 0.0169,-0.32272 -0.0538,-0.4459 -0.19997,-0.3484 -0.61953,-0.43213 -0.84088,-0.76085 -0.12373,-0.18379 -0.15225,-0.44135 -0.26404,-0.63611 -0.14228,-0.2479 -0.48838,-0.32275 -0.63066,-0.57065 -0.0707,-0.12317 0.002,-0.3118 -0.0538,-0.44589 -0.0787,-0.18965 -0.34172,-0.19078 -0.42044,-0.38044 -0.0557,-0.13409 0.002,-0.31179 -0.0538,-0.44589 -0.0787,-0.18965 -0.34172,-0.19078 -0.42044,-0.38043 -0.0557,-0.1341 0.002,-0.31179 -0.0538,-0.44589 -0.0524,-0.12611 -0.61965,-0.47949 -0.63065,-0.57065 -0.0127,-0.1051 0.16908,-0.15057 0.15639,-0.25568 -0.0254,-0.2102 -0.5247,-0.20997 -0.42044,-0.38043 0.0522,-0.0852 0.28029,0.25362 0.21022,0.19022 -0.14014,-0.12681 -0.28029,-0.25362 -0.42044,-0.38043 -0.0701,-0.0634 -0.12727,-0.15701 -0.21022,-0.19021 -0.1855,-0.0743 -0.39654,-0.0335 -0.57683,-0.12475 -0.16125,-0.0817 -0.25919,-0.29875 -0.42043,-0.38044 -0.18029,-0.0913 -0.39133,-0.0505 -0.57684,-0.12473 -0.083,-0.0332 -0.12726,-0.15701 -0.21022,-0.19023 -0.18551,-0.0743 -0.39654,-0.0334 -0.57683,-0.12474 -0.16124,-0.0817 -0.28029,-0.25362 -0.42044,-0.38043 -0.19227,-0.0416 -0.39132,-0.0505 -0.57682,-0.12475 -0.16593,-0.0664 -0.24762,-0.41129 -0.42044,-0.38043 -0.0864,0.0155 -0.07,0.24025 -0.15639,0.25568 -0.0749,0.0134 -0.51631,-0.54591 -0.63066,-0.57064 -0.1216,-0.0263 -0.245,0.0918 -0.36661,0.0654 -0.086,-0.0186 -0.14015,-0.1268 -0.21023,-0.19021 -0.0701,-0.0634 -0.14014,-0.12681 -0.21021,-0.19021 -0.28029,-0.25362 -0.56058,-0.50725 -0.84087,-0.76086 -0.14015,-0.12681 -0.2803,-0.25362 -0.42044,-0.38043 -0.0701,-0.0634 -0.12727,-0.157 -0.21023,-0.19021 -0.1855,-0.0743 -0.39132,-0.0505 -0.57682,-0.12475 -0.14803,-0.0592 -0.49252,-0.44566 -0.63066,-0.57065 -0.35036,-0.31702 -0.70072,-0.63405 -1.05109,-0.95107 -0.22954,-0.2077 -0.94886,-0.77294 -1.0511,-0.95108 -0.11178,-0.19476 -0.15226,-0.44134 -0.26405,-0.6361 -0.13309,-0.23191 -0.97249,-0.76171 -1.05108,-0.95108 -0.0557,-0.1341 0.002,-0.31179 -0.0538,-0.44589 -0.0394,-0.0948 -0.17085,-0.0954 -0.21022,-0.19021 -0.0557,-0.1341 0.002,-0.3118 -0.0538,-0.4459 -0.0394,-0.0948 -0.14015,-0.1268 -0.21023,-0.19021 -0.088,-0.21204 -0.19833,-0.41243 -0.26404,-0.63611 -0.0416,-0.14147 0.002,-0.31179 -0.0538,-0.4459 -0.0393,-0.0948 -0.17086,-0.0954 -0.21023,-0.19021 -0.0557,-0.13411 0.002,-0.3118 -0.0538,-0.44591 -0.0787,-0.18964 -0.34171,-0.19077 -0.42043,-0.38042 -0.0557,-0.1341 0.002,-0.31179 -0.0538,-0.4459 -0.0394,-0.0948 -0.19754,-0.0851 -0.21022,-0.19021 -0.0127,-0.1051 0.16908,-0.15058 0.15639,-0.25569 -0.0254,-0.21018 -0.39506,-0.17022 -0.42043,-0.38042 -0.0127,-0.1051 0.16907,-0.15058 0.15638,-0.25568 -0.0127,-0.1051 -0.17085,-0.0954 -0.21021,-0.19022 -0.11133,-0.2682 0.004,-0.62357 -0.10765,-0.89178 -0.0787,-0.18965 -0.39507,-0.17024 -0.42044,-0.38043 -0.0127,-0.1051 0.16908,-0.15059 0.1564,-0.25568 -0.0127,-0.1051 -0.19754,-0.0851 -0.21023,-0.19022 -0.0127,-0.10509 0.14109,-0.1511 0.1564,-0.25568 0.0217,-0.1479 -0.0755,-0.29799 -0.0538,-0.4459 0.0154,-0.10458 0.16907,-0.15058 0.15639,-0.25567 -0.0127,-0.1051 -0.17085,-0.0954 -0.21022,-0.19022 -0.54945,-1.32367 0.21395,0.22097 0.10257,-0.70158 -0.0127,-0.1051 -0.17086,-0.0954 -0.21022,-0.19021 -0.0351,-0.0844 -0.1751,-1.24455 -0.16148,-1.33769 0.0154,-0.10457 0.14111,-0.1511 0.1564,-0.25567 0.0217,-0.14791 -0.0754,-0.298 -0.0538,-0.44591 0.0186,-0.12686 0.67319,-1.10057 0.78196,-1.2784 0.36492,-0.59659 0.72984,-1.19318 1.09476,-1.78976 0.0371,-0.0608 0.56695,-0.98675 0.62556,-1.02273 0.11026,-0.0677 0.25637,0.003 0.36662,-0.0654 0.0779,-0.0479 0.10427,-0.17047 0.1564,-0.25569 0.0522,-0.0852 0.10425,-0.17045 0.15638,-0.25568"
       style="fill:none;stroke:#1e9103;stroke-width:3;stroke-linecap:butt;stroke-linejoin:miter;stroke-miterlimit:4;stroke-opacity:1;stroke-dasharray:none" />
    <path
       id="path3652"
       d="m 467.31233,401.2095 c -0.11993,1.12796 -0.2399,2.2559 -0.35985,3.38385 -0.0339,0.31995 -0.28321,1.5461 -0.19627,1.84577 0.08,0.2755 0.33871,0.60592 0.50764,0.90859 0.16927,0.3029 0.3387,0.60592 0.50764,0.90861 0.16928,0.30292 0.22301,0.59199 0.50763,0.90861 0.28465,0.31665 0.82866,0.57754 1.1135,0.89441 0.28467,0.31667 0.223,0.59195 0.50764,0.90861 0.12746,0.14174 0.40712,0.16004 0.57312,0.29339 0.23477,0.18855 0.30566,0.41247 0.5404,0.60101 0.33194,0.26654 0.81426,0.32014 1.14626,0.58682 0.23477,0.18854 0.28887,0.42387 0.54041,0.601 0.25753,0.18157 2.54573,1.30324 2.86566,1.46704 1.14623,0.58677 2.2925,1.17359 3.43874,1.76038 0.38208,0.19564 0.76734,0.43526 1.14624,0.58678 0.59917,0.23969 1.15762,0.35118 1.75208,0.57257 0.18797,0.0699 0.38211,0.19566 0.57315,0.29341 0.9552,0.48899 1.91039,0.97798 2.86559,1.46697 0.19115,0.0978 0.38849,0.23312 0.57314,0.29341 0.41298,0.13495 0.76602,0.14423 1.17897,0.27918 0.83413,0.27258 1.10336,0.99027 1.17895,0.27915"
       style="fill:none;stroke:#ffa60c;stroke-width:1.99999976;stroke-linecap:butt;stroke-linejoin:miter;stroke-miterlimit:4;stroke-opacity:1;stroke-dasharray:none" />
    <path
       id="path3654"
       d="m 455.48819,408.95146 c -2.52077,-2.52078 0.68249,0.54599 -2.61002,-2.08802 -1.61843,-1.29474 -0.46778,-1.0169 -2.61003,-2.08802 -0.49215,-0.24608 -1.09419,-0.23891 -1.56602,-0.52201 -0.42201,-0.25321 -0.65028,-0.74872 -1.04401,-1.04401 -0.80636,-0.60477 -2.26276,-0.98651 -3.13203,-1.56601 -0.60231,-0.40155 -0.9637,-1.16448 -1.56601,-1.56602 -0.32373,-0.21582 -0.72028,-0.30618 -1.04401,-0.522 -0.4095,-0.273 -0.63452,-0.77102 -1.04401,-1.04401 -0.32373,-0.21583 -0.69601,-0.34801 -1.04401,-0.52201 -0.69601,-0.348 -1.39201,-0.69601 -2.08802,-1.04401 -0.348,-0.174 -0.73275,-0.28856 -1.04401,-0.522 -0.39372,-0.29529 -0.65029,-0.74872 -1.04401,-1.04401 -0.62253,-0.4669 -1.44055,-0.61237 -2.08802,-1.04401 -0.20475,-0.1365 -0.30191,-0.41196 -0.52201,-0.52201 -0.49215,-0.24607 -1.07386,-0.27593 -1.56601,-0.522 -0.39876,-0.19938 -1.21254,-1.44819 -1.56602,-1.56602 -0.33014,-0.11005 -0.73274,0.15563 -1.04401,0 -0.15563,-0.0778 0.12304,-0.39897 0,-0.522 -0.27512,-0.27513 -0.72027,-0.30619 -1.04401,-0.52201 -0.20474,-0.1365 -0.31726,-0.38551 -0.522,-0.522 -0.0972,-0.0648 -2.05457,-1.01056 -2.08802,-1.04401 -0.27512,-0.27513 -0.24689,-0.76889 -0.52201,-1.04401 -0.0335,-0.0335 -1.99078,-0.97919 -2.08802,-1.04401 -0.20474,-0.1365 -0.348,-0.34801 -0.522,-0.52201 -0.34801,-0.348 -0.69601,-0.69601 -1.04401,-1.04401 -0.174,-0.174 -0.30191,-0.41196 -0.52201,-0.522 -0.49215,-0.24608 -1.12582,-0.19186 -1.56601,-0.52201 -0.31127,-0.23345 -0.24689,-0.76889 -0.52201,-1.04401 -0.27512,-0.27512 -0.73274,-0.28856 -1.04401,-0.52201 -4.07837,-3.05877 2.3804,0.9292 -2.61002,-1.56601 -0.2201,-0.11005 -0.34801,-0.348 -0.52201,-0.52201 -0.348,-0.348 -0.74872,-0.65028 -1.04401,-1.04401 -0.23345,-0.31126 -0.24688,-0.76888 -0.522,-1.04401 -0.27512,-0.27512 -0.76889,-0.24688 -1.04401,-0.522 -0.44362,-0.44362 -0.66759,-1.06412 -1.04401,-1.56602 -0.44294,-0.59058 -1.04401,-1.04401 -1.56602,-1.56601 -0.87001,-0.87001 -1.74002,-1.74002 -2.61002,-2.61003 -0.34801,-0.348 -0.69601,-0.696 -1.04401,-1.04401 -0.17401,-0.174 -0.30191,-0.41195 -0.52201,-0.522 -0.15563,-0.0778 -0.39897,0.12304 -0.522,0 -0.24608,-0.24608 0.15563,-0.73275 0,-1.04401 -0.5392,-1.0784 -0.84889,0.0317 -1.56602,-1.04401 -0.21582,-0.32374 -0.30618,-0.72028 -0.522,-1.04401 -0.1365,-0.20475 -0.38551,-0.31726 -0.52201,-0.52201 -0.0648,-0.0972 -1.01056,-2.05457 -1.04401,-2.08802 -1.16001,-1.16001 -1.10201,0.29001 -1.56602,-1.56601 -0.0844,-0.33761 0.11005,-0.71387 0,-1.04401 -0.15563,-0.4669 -0.77101,-0.63452 -1.04401,-1.04401 -0.21582,-0.32374 -0.30618,-0.72028 -0.522,-1.04401 -0.1365,-0.20475 -0.38551,-0.31726 -0.52201,-0.52201 -0.21582,-0.32373 -0.30618,-0.72027 -0.522,-1.04401 -0.1365,-0.20474 -0.41196,-0.30191 -0.52201,-0.522 -0.0778,-0.15563 0.0778,-0.36638 0,-0.52201 -0.11005,-0.22009 -0.38551,-0.31726 -0.522,-0.522 -0.21583,-0.32374 -0.30619,-0.72028 -0.52201,-1.04401 -0.1365,-0.20475 -0.38551,-0.31726 -0.522,-0.52201 -0.43165,-0.64747 -0.61237,-1.44055 -1.04401,-2.08802 -0.1365,-0.20475 -0.38551,-0.31726 -0.52201,-0.522 -0.21582,-0.32374 -0.30618,-0.72028 -0.522,-1.04401 -0.63676,-0.95513 -0.66553,-0.0521 -1.04401,-1.56602 -0.0844,-0.33761 0.11004,-0.71386 0,-1.04401 -0.0778,-0.23345 -0.41196,-0.30191 -0.52201,-0.522 -0.0778,-0.15564 0.0778,-0.36638 0,-0.52201 -0.11005,-0.2201 -0.44419,-0.28856 -0.522,-0.522 -0.26101,-0.78301 0.261,-1.82702 0,-2.61003 -0.0778,-0.23345 -0.44419,-0.28856 -0.52201,-0.522 -0.2201,-0.66029 0.16881,-1.4128 0,-2.08802 -0.0944,-0.37747 -0.42764,-0.66655 -0.522,-1.04401 -0.0844,-0.33762 0.0844,-0.7064 0,-1.04401 -0.0944,-0.37747 -0.42764,-0.66655 -0.52201,-1.04401 -0.0844,-0.33762 0,-0.69601 0,-1.04401 0,-0.17401 0.0778,-0.36638 0,-0.52201 -0.11005,-0.2201 -0.44419,-0.28856 -0.522,-0.522 -0.11296,-0.33888 0,-3.17986 0,-3.65404 0,-0.174 0.055,-0.35693 0,-0.522 -0.12304,-0.36912 -0.39897,-0.6749 -0.52201,-1.04402 -0.1849,-0.55468 0.1849,-1.53333 0,-2.08802 -0.12304,-0.36911 -0.42764,-0.66654 -0.522,-1.04401 -0.12661,-0.50641 0.16507,-1.07079 0,-1.56601 -0.12304,-0.36911 -0.42764,-0.66655 -0.52201,-1.04401 -0.11831,-0.47322 0,-2.00363 0,-2.61003 0,-0.348 0.11005,-0.71386 0,-1.04401 -0.0778,-0.23344 -0.38551,-0.31725 -0.522,-0.522 -0.59983,-0.89973 -0.52201,-0.78906 -0.52201,-1.56602 0,-0.174 0.0778,-0.36637 0,-0.522 -0.11005,-0.2201 -0.41196,-0.30191 -0.522,-0.52201 -0.11615,-0.23228 0.0796,-1.84926 0,-2.08802 -0.0778,-0.23344 -0.41196,-0.3019 -0.52201,-0.522 -0.0778,-0.15563 0,-0.348 0,-0.52201 0,-0.174 0,-0.348 0,-0.522 0,-1.21801 0,-2.43603 0,-3.65404 0,-1.04401 0,-2.08802 0,-3.13203 0,-0.23509 -0.0794,-1.40715 0,-1.56601 0.11005,-0.2201 0.41196,-0.30191 0.52201,-0.52201 0.15563,-0.31126 -0.24608,-0.79793 0,-1.04401 0.696,-0.696 0.522,0.87001 0.522,-0.522"
       style="fill:none;stroke:#1e9103;stroke-width:3;stroke-linecap:butt;stroke-linejoin:miter;stroke-miterlimit:4;stroke-opacity:1;stroke-dasharray:none" />
    <path
       id="path3656"
       d="m 489.20553,389.61084 c 4.76722,4.0635 9.53445,8.12701 14.30167,12.1905 0.52968,0.45149 1.05938,0.903 1.58907,1.3545 0.66211,0.56438 1.27134,1.19745 1.98634,1.69312 0.72917,0.5055 1.60041,0.7838 2.32497,1.29587 0.0793,0.0558 4.72097,4.0359 4.76722,4.0635 0.94349,0.56648 2.12454,0.65897 3.06087,1.23721 1.03632,0.63999 1.85391,1.58025 2.78087,2.37037 0.92697,0.79013 1.85393,1.58025 2.78089,2.37038 2.78087,2.37037 5.56176,4.74076 8.34264,7.11113 2.25118,1.91887 4.50237,3.83775 6.75356,5.75662 0.66212,0.56438 1.39063,1.05907 1.98635,1.69313 0.49127,0.52282 0.7592,1.22892 1.25045,1.75177 0.59572,0.63405 1.32423,1.12874 1.98634,1.69312 0.13242,0.11291 0.3293,0.17846 0.39728,0.33862 0.0961,0.22653 -0.0375,0.50937 0.0586,0.7359 0.0679,0.16016 0.26484,0.22574 0.39727,0.33863 0.13242,0.11291 0.26485,0.22574 0.39726,0.33862"
       style="fill:none;stroke:#ffa60c;stroke-width:2;stroke-linecap:butt;stroke-linejoin:miter;stroke-miterlimit:4;stroke-opacity:1;stroke-dasharray:none" />
    <path
       id="path3658"
       d="m 426.25591,342.13481 c -0.0803,-0.0535 -0.96374,-0.9905 -1.04401,-1.04401 -0.32374,-0.21582 -0.72028,-0.30618 -1.04401,-0.522 -0.61424,-0.4095 -0.97544,-1.12308 -1.56602,-1.56602 -0.31126,-0.23345 -0.76889,-0.24688 -1.04401,-0.522 -0.27512,-0.27513 -0.28856,-0.73275 -0.522,-1.04401 -0.29529,-0.39373 -0.69601,-0.69601 -1.04401,-1.04401 -0.78897,-0.78897 -1.94535,-1.77918 -2.61003,-2.61003 -0.39191,-0.4899 -0.65209,-1.07612 -1.04401,-1.56602 -0.30744,-0.3843 -0.74872,-0.65028 -1.04401,-1.04401 -0.46689,-0.62252 -0.61236,-1.44055 -1.04401,-2.08802 -0.31679,-0.47518 -1.33468,-1.10334 -1.56601,-1.56601 -0.0778,-0.15563 0.0778,-0.36637 0,-0.52201 -0.11005,-0.22009 -0.41196,-0.3019 -0.52201,-0.522 -0.0778,-0.15563 0.0778,-0.36637 0,-0.52201 -0.11005,-0.22009 -0.41196,-0.3019 -0.522,-0.522 -0.0778,-0.15563 0,-0.348 0,-0.52201 0,-0.348 0.11004,-0.71386 0,-1.04401 -0.0778,-0.23344 -0.38551,-0.31725 -0.52201,-0.522 -0.21582,-0.32373 -0.348,-0.69601 -0.522,-1.04401 -0.17401,-0.348 -0.42764,-0.66655 -0.52201,-1.04401 -0.0844,-0.33761 0.0844,-0.7064 0,-1.04401 0.31463,-0.9448 -0.84562,-0.97084 -1.04401,-1.56602 -0.11005,-0.33014 0,-0.696 0,-1.04401 0,-0.348 0,-0.696 0,-1.04401 0,-1.04401 0,-2.08802 0,-3.13203 0,-1.39201 0,-2.78402 0,-4.17604 0,-0.42736 -0.11274,-2.27181 0,-2.61002 0.12304,-0.36912 0.39897,-0.6749 0.52201,-1.04401 0.11004,-0.33015 -0.24608,-0.79794 0,-1.04401 0.12303,-0.12304 0.39896,0.12303 0.522,0 0.10672,-0.10672 -0.10348,-1.35905 0,-1.56602 0.1394,-0.27879 1.2912,-1.2912 1.56602,-1.56601 0.174,-0.174 0.348,-0.34801 0.522,-0.52201 0.174,-0.174 0.30191,-0.41195 0.52201,-0.522 0.15563,-0.0778 0.36637,0.0778 0.522,0 0.2201,-0.11005 0.30191,-0.41196 0.52201,-0.52201 0.31126,-0.15563 0.79793,0.24608 1.04401,0 0.12303,-0.12304 -0.12304,-0.39897 0,-0.522 0.24607,-0.24608 0.73274,0.15563 1.04401,0 0.22009,-0.11005 0.3019,-0.41196 0.522,-0.52201 0.13726,-0.0686 1.81505,0 2.08802,0 0.36308,0 2.42125,-0.0944 2.61003,0 0.44019,0.2201 0.57711,0.88838 1.04401,1.04401 0.33014,0.11005 0.73274,-0.15563 1.04401,0 0.15563,0.0778 -0.0778,0.36637 0,0.52201 0.11005,0.22009 0.348,0.348 0.522,0.522 0.174,0.174 0.30191,0.41196 0.52201,0.52201 0.15563,0.0778 0.39896,-0.12304 0.522,0 0.24608,0.24607 -0.15563,0.73274 0,1.04401 0.11005,0.22009 0.41196,0.30191 0.52201,0.522 0.0778,0.15563 -0.0778,0.36638 0,0.52201 0.11005,0.22009 0.41195,0.30191 0.522,0.522 0.27852,0.55703 -0.27851,0.48699 0,1.04401 0.11005,0.2201 0.41196,0.30191 0.52201,0.52201 0.0778,0.15563 -0.055,0.35693 0,0.522 0.12304,0.36912 0.39896,0.6749 0.522,1.04401 0.11005,0.33015 -0.15563,0.73275 0,1.04401 0.11005,0.2201 0.41196,0.30191 0.52201,0.52201 0.16404,0.32809 -0.16405,1.75993 0,2.08802 0.64504,1.29008 0.522,-0.18019 0.522,1.04401 0,0.174 0,0.348 0,0.522 0,0.174 -0.174,0.52201 0,0.52201 0.0336,0 1.43942,-1.43942 1.56602,-1.56602 0.174,-0.174 0.30191,-0.41195 0.522,-0.522 0.72003,-0.36002 0.46692,0.63217 1.04401,-0.52201 0.0778,-0.15563 0,-0.348 0,-0.522 0.174,-0.34801 0.30619,-0.72028 0.52201,-1.04401 0.27299,-0.4095 0.82391,-0.60382 1.04401,-1.04401 0.0778,-0.15563 -0.12304,-0.39897 0,-0.52201 0.12304,-0.12304 0.39897,0.12304 0.522,0 0.12304,-0.12304 -0.0778,-0.36637 0,-0.522 0.11005,-0.2201 0.38551,-0.31726 0.52201,-0.52201 0.21582,-0.32373 0.30618,-0.72027 0.522,-1.04401 0.14297,-0.21445 1.35156,-1.42304 1.56602,-1.56601 0.32373,-0.21583 0.72027,-0.30619 1.04401,-0.52201 0.20475,-0.1365 0.28856,-0.44419 0.522,-0.522 0.33015,-0.11005 0.71387,0.11005 1.04401,0 0.23345,-0.0778 0.28856,-0.44419 0.52201,-0.52201 0.66029,-0.22009 1.42773,0.2201 2.08802,0 0.23345,-0.0778 0.30191,-0.41195 0.522,-0.522 0.18878,-0.0944 2.24695,0 2.61003,0 0.36307,0 2.42125,-0.0944 2.61002,0 0.2201,0.11005 0.30191,0.41195 0.52201,0.522 0.15563,0.0778 0.348,0 0.522,0 0.17401,0.174 0.30191,0.41196 0.52201,0.52201 0.15563,0.0778 0.39897,-0.12304 0.522,0 0.12304,0.12303 -0.12303,0.39896 0,0.522 0.12304,0.12304 0.39897,-0.12304 0.52201,0 0.12304,0.12304 -0.12304,0.39897 0,0.52201 0.12304,0.12303 0.39897,-0.12304 0.522,0 0.12304,0.12303 -0.12303,0.39896 0,0.522 0.12304,0.12304 0.39897,-0.12304 0.52201,0 0.24608,0.24608 -0.15563,0.73275 0,1.04401 0.11147,0.22293 0.93254,0.82108 1.04401,1.04401 0.15563,0.31127 -0.15563,0.73275 0,1.04401 0.11005,0.2201 0.41196,0.30191 0.52201,0.52201 0.15563,0.31126 -0.15564,0.73274 0,1.04401 0.11004,0.22009 0.41195,0.30191 0.522,0.522 0.0794,0.15887 0,1.33093 0,1.56602 0,0.36307 0.0944,2.42125 0,2.61002 -0.11005,0.2201 -0.41196,0.30191 -0.522,0.52201 -0.15564,0.31126 0.15563,0.73274 0,1.04401 -0.11005,0.22009 -0.41196,0.30191 -0.52201,0.522 -0.0778,0.15564 0.055,0.35694 0,0.52201 -0.12304,0.36911 -0.39897,0.6749 -0.522,1.04401 -0.11005,0.33014 0.24607,0.79793 0,1.04401 -0.12304,0.12304 -0.39897,-0.12304 -0.52201,0 -0.12304,0.12304 0.0778,0.36637 0,0.522 -0.174,0.17401 -0.348,0.34801 -0.52201,0.52201 -0.174,0.174 -0.41195,0.30191 -0.522,0.522 -0.15563,0.31127 0.24608,0.79794 0,1.04401 -0.12304,0.12304 -0.39897,-0.12303 -0.52201,0 -0.12303,0.12304 0.12304,0.39897 0,0.52201 -0.12303,0.12304 -0.39896,-0.12304 -0.522,0 -0.12304,0.12304 0.0778,0.36637 0,0.522 -0.11005,0.2201 -0.41196,0.30191 -0.52201,0.52201 -0.0778,0.15563 0.0778,0.36637 0,0.522 -0.11004,0.2201 -0.41195,0.30191 -0.522,0.52201 -0.0778,0.15563 0.0778,0.36637 0,0.522 -0.11005,0.2201 -0.41196,0.30191 -0.52201,0.52201 -0.0778,0.15563 0.0778,0.36637 0,0.522 -0.22009,0.4402 -0.82391,0.60382 -1.04401,1.04401 -0.0778,0.15564 0.12304,0.39897 0,0.52201 -0.24607,0.24607 -0.79793,-0.24608 -1.04401,0 -0.12303,0.12304 0.12304,0.39897 0,0.522 -0.12303,0.12304 -0.39896,-0.12303 -0.522,0 -0.12304,0.12304 0.0778,0.36638 0,0.52201 -0.11005,0.2201 -0.41196,0.30191 -0.52201,0.522 -0.0778,0.15564 0.12304,0.39897 0,0.52201 -0.12303,0.12304 -0.36637,-0.0778 -0.522,0 -0.2201,0.11005 -0.348,0.348 -0.52201,0.522 -0.174,0.17401 -0.41195,0.30191 -0.522,0.52201 -0.0778,0.15563 0.12304,0.39897 0,0.522 -0.12304,0.12304 -0.39897,-0.12303 -0.52201,0 -1.08004,1.08005 1.65046,-0.0422 -0.522,1.04401 -0.15563,0.0778 -0.36637,-0.0778 -0.52201,0 -0.22009,0.11005 -0.348,0.34801 -0.522,0.52201 -0.174,0.174 -0.41196,0.30191 -0.52201,0.522 -0.0778,0.15564 0.12304,0.39897 0,0.52201 -0.12303,0.12304 -0.39896,-0.12304 -0.522,0 -0.12304,0.12304 0.0778,0.36637 0,0.52201 -0.3132,0.6264 -1.25281,0.9396 -1.56602,1.56601 -0.0778,0.15563 0.12304,0.39897 0,0.52201 -0.12303,0.12303 -0.39896,-0.12304 -0.522,0 -0.12304,0.12303 0.0778,0.36637 0,0.522 -0.11005,0.2201 -0.41196,0.30191 -0.52201,0.52201 -0.0778,0.15563 0.12304,0.39896 0,0.522 -0.12303,0.12304 -0.39896,-0.12304 -0.522,0 -0.12304,0.12304 0.12304,0.39897 0,0.52201 -0.12304,0.12303 -0.39897,-0.12304 -0.52201,0 -0.12303,0.12303 0.0778,0.36637 0,0.522 -0.11004,0.2201 -0.41195,0.30191 -0.522,0.52201 -0.0778,0.15563 0.12304,0.39896 0,0.522 -0.12304,0.12304 -0.39897,-0.12304 -0.52201,0 -0.12303,0.12304 0.12304,0.39897 0,0.52201 -0.12303,0.12303 -0.39896,-0.12304 -0.522,0 -0.12304,0.12303 0.12304,0.39896 0,0.522 -1.08005,1.08005 0.0422,-1.65045 -1.04401,0.52201 0,1.39201 0.174,-0.17401 -0.52201,0.522 -0.12303,0.12304 0.12304,0.39897 0,0.52201 -0.12303,0.12303 -0.39896,-0.12304 -0.522,0 -0.12304,0.12303 0.12304,0.39896 0,0.522 -0.24608,0.24608 -0.79794,-0.24607 -1.04401,0 -0.12304,0.12304 0.174,0.52201 0,0.52201 -0.71743,0 -1.39202,-0.34801 -4.17604,-0.52201 z"
       style="fill:none;stroke:#ffa60c;stroke-width:2;stroke-linecap:butt;stroke-linejoin:miter;stroke-miterlimit:4;stroke-opacity:1;stroke-dasharray:none" />
    <path
       id="path3660"
       d="m 404.8537,312.90253 c 0.50861,0.0825 1.0708,-0.16507 1.56602,0 0.23344,0.0778 0.28855,0.44419 0.522,0.522 0.33015,0.11005 0.7064,-0.0844 1.04401,0 0.37746,0.0944 0.68276,0.37751 1.04401,0.52201 0.51089,0.20435 1.05513,0.31765 1.56602,0.522 0.36125,0.1445 0.68275,0.37751 1.04401,0.52201 0.51088,0.20435 1.05512,0.31765 1.56601,0.522 0.36125,0.1445 0.68276,0.37751 1.04401,0.52201 1.02177,0.40871 2.08802,0.69601 3.13203,1.04401 0.52201,0.174 1.07387,0.27593 1.56602,0.522 0.56114,0.28057 1.00487,0.76344 1.56601,1.04401 0.9843,0.49215 2.14773,0.55186 3.13203,1.04401 0.56114,0.28057 1.00488,0.76344 1.56602,1.04401 0.49215,0.24608 1.04401,0.34801 1.56601,0.52201 0.52201,0.174 1.03221,0.38855 1.56602,0.522 0.44659,0.11165 2.08827,0 2.61002,0 0.174,0 0.35694,-0.055 0.52201,0 0.36911,0.12304 0.72027,0.30619 1.04401,0.52201 0.20475,0.1365 0.28856,0.44419 0.522,0.522 0.33015,0.11005 0.7064,-0.0844 1.04401,0 0.37747,0.0944 0.66655,0.42764 1.04401,0.52201 0.33762,0.0844 0.7064,-0.0844 1.04401,0 0.37747,0.0944 0.6749,0.39897 1.04401,0.522 0.16508,0.055 0.35694,-0.055 0.52201,0 0.36911,0.12304 0.66655,0.42764 1.04401,0.52201 0.33761,0.0844 0.7064,-0.0844 1.04401,0 0.37746,0.0944 0.66655,0.42764 1.04401,0.522 0.33761,0.0844 0.69601,0 1.04401,0 0.348,0.17401 0.6749,0.39897 1.04401,0.52201 0.16507,0.055 0.36637,-0.0778 0.522,0 0.2201,0.11005 0.30191,0.41196 0.52201,0.522 0.20697,0.10349 1.4593,-0.10671 1.56601,0 0.12304,0.12304 -0.12303,0.39897 0,0.52201 0.24608,0.24607 0.71387,-0.11005 1.04401,0 0.36912,0.12304 0.6749,0.39897 1.04401,0.522 0.33015,0.11005 0.73275,-0.15563 1.04401,0 0.2201,0.11005 0.30191,0.41196 0.52201,0.52201 1.28567,0.64284 -0.47123,-1.51524 1.56602,0.522 0.12303,0.12304 -0.12304,0.39897 0,0.52201 0.24607,0.24608 0.73274,-0.15563 1.04401,0 1.11573,0.55787 -0.0717,0.48614 1.04401,1.04401 0.15563,0.0778 0.39896,-0.12304 0.522,0 0.12304,0.12304 -0.12304,0.39897 0,0.522 0.10672,0.10672 1.35904,-0.10348 1.56602,0 0.22009,0.11005 0.3019,0.41196 0.522,0.52201 0.31126,0.15563 0.73275,-0.15563 1.04401,0 0.2201,0.11005 0.30191,0.41196 0.52201,0.522 0.15563,0.0778 0.36637,-0.0778 0.522,0 1.29009,0.64505 -0.18018,0.52201 1.04401,0.52201"
       style="fill:none;stroke:#ffa60c;stroke-width:2;stroke-linecap:butt;stroke-linejoin:miter;stroke-miterlimit:4;stroke-opacity:1;stroke-dasharray:none" />
    <path
       id="path3662"
       d="m 457.57621,327.51867 c 0.32696,0.53942 1.29325,1.02048 1.56602,1.56601 0.0778,0.15564 -0.0778,0.36638 0,0.52201 0.22009,0.44019 0.82391,0.60382 1.04401,1.04401 0.15563,0.31126 -0.15564,0.73275 0,1.04401 0.11004,0.2201 0.41195,0.30191 0.522,0.522 0.15563,0.31127 -0.15563,0.73275 0,1.04402 0.0679,0.1359 0.93007,0.63594 0.52201,1.04401 -0.12304,0.12303 -0.34801,0 -0.52201,0 -0.174,0 -0.348,0 -0.522,0 -1.56602,0 -3.13203,0 -4.69805,0 -0.32734,0 -2.02354,-0.0645 -2.08802,0 -0.12304,0.12303 0.12304,0.39896 0,0.522 -0.12304,0.12304 -0.348,0 -0.522,0 -0.17401,0 -0.69601,0 -0.52201,0 0.348,0 0.73275,0.15563 1.04401,0 0.15563,-0.0778 -0.0778,-0.36637 0,-0.522 0.2201,-0.4402 0.82391,-0.60382 1.04401,-1.04401 0.0778,-0.15564 -0.0778,-0.36638 0,-0.52201 0.25683,-0.51367 1.83119,-1.57435 2.08802,-2.08802 0.0778,-0.15563 -0.12304,-0.39897 0,-0.52201 0.12304,-0.12303 0.39897,0.12304 0.52201,0 0.10671,-0.10671 -0.10349,-1.35904 0,-1.56601 0.98518,-1.97036 1.16228,2.67939 0.522,-1.04401 z"
       style="fill:none;stroke:#ffa60c;stroke-width:2;stroke-linecap:butt;stroke-linejoin:miter;stroke-miterlimit:4;stroke-opacity:1;stroke-dasharray:none" />
    <path
       id="path3664"
       d="m 404.8537,308.20448 c 0.174,0.174 0.348,0.34801 0.52201,0.52201 0.348,0.174 0.76888,0.24688 1.04401,0.522 0.27512,0.27512 0.30618,0.72028 0.522,1.04401 0.273,0.4095 0.82391,0.60382 1.04401,1.04401 0.0778,0.15563 -0.0778,0.36638 0,0.52201 1.08623,2.17246 -0.036,-0.55804 1.04401,0.522 0.24608,0.24608 -0.15563,0.73275 0,1.04401 0.18666,0.37331 1.11282,0.74861 0.52201,1.04401 -0.31127,0.15563 -0.71387,-0.11005 -1.04401,0 -0.23345,0.0778 -0.28856,0.44419 -0.52201,0.52201 -0.33014,0.11005 -0.71386,-0.11005 -1.04401,0 -0.23345,0.0778 -0.28856,0.44419 -0.522,0.522 -0.33015,0.11005 -0.7064,-0.0844 -1.04401,0 -0.37747,0.0944 -0.66655,0.42764 -1.04401,0.52201 -0.33762,0.0844 -0.71387,-0.11005 -1.04401,0 -0.23345,0.0778 -0.34801,0.348 -0.52201,0.522 -0.348,0.17401 -0.66655,0.42764 -1.04401,0.52201 -0.54074,0.13518 -1.48946,0 -2.08802,0"
       style="fill:none;stroke:#ffa60c;stroke-width:2;stroke-linecap:butt;stroke-linejoin:miter;stroke-miterlimit:4;stroke-opacity:1;stroke-dasharray:none" />
    <path
       id="path3666"
       d="m 402.24368,307.16047 c 1.46982,0.0324 0.13292,1.17694 0.522,1.56602 0.27512,0.27512 0.76889,0.24688 1.04401,0.522 0.27512,0.27512 0.24688,0.76889 0.52201,1.04401 1.08004,1.08005 -0.0422,-1.65045 1.04401,0.52201 0.0778,0.15563 -0.0778,0.36637 0,0.522 0.11004,0.2201 0.41195,0.30191 0.522,0.52201 0.0778,0.15563 -0.0778,0.36637 0,0.522 0.11005,0.2201 0.41196,0.30191 0.52201,0.52201 0.0778,0.15563 -0.12304,0.39897 0,0.522 0.12303,0.12304 0.36637,-0.0778 0.522,0 0.2201,0.11005 0.30191,0.41196 0.52201,0.52201 0.15563,0.0778 0.39896,-0.12304 0.522,0 0.12304,0.12304 0.12304,0.39897 0,0.522 -0.12304,0.12304 -0.36637,-0.0778 -0.522,0 -0.2201,0.11005 -0.28856,0.44419 -0.52201,0.52201 -0.33014,0.11005 -0.7064,-0.0844 -1.04401,0 -0.37746,0.0944 -0.66655,0.42764 -1.04401,0.522 -0.33761,0.0844 -0.7064,-0.0844 -1.04401,0 -0.37746,0.0944 -0.66655,0.42764 -1.04401,0.52201 -0.33761,0.0844 -0.69601,0 -1.04401,0 -0.174,0 -0.36637,-0.0778 -0.522,0 -1.29009,0.64504 0.18018,0.522 -1.04401,0.522"
       style="fill:none;stroke:#ffa60c;stroke-width:2;stroke-linecap:butt;stroke-linejoin:miter;stroke-miterlimit:4;stroke-opacity:1;stroke-dasharray:none" />
    <path
       id="path3668"
       d="m 399.11164,308.72649 c 0.4402,0.22009 0.60382,0.82391 1.04402,1.04401 0.15563,0.0778 0.39896,-0.12304 0.522,0 0.27512,0.27512 0.30618,0.72027 0.52201,1.04401 0.13649,0.20475 0.348,0.348 0.522,0.522 0.174,0.174 0.31726,0.38551 0.52201,0.52201 0.32373,0.21582 0.76888,0.24688 1.04401,0.522 0.12303,0.12304 -0.0778,0.36638 0,0.52201 0.11004,0.22009 0.348,0.348 0.522,0.522 0.174,0.174 0.30191,0.41196 0.52201,0.52201 0.15563,0.0778 0.36637,-0.0778 0.522,0 0.2201,0.11005 0.348,0.348 0.52201,0.522 0.174,0.174 0.41195,0.30191 0.522,0.52201 0.0778,0.15563 0,0.348 0,0.522 0,0.174 0.12304,0.39897 0,0.52201 -0.24607,0.24607 -0.73275,-0.15563 -1.04401,0 -0.2201,0.11005 -0.30191,0.41196 -0.522,0.522 -0.23228,0.11614 -1.84927,-0.0796 -2.08802,0 -0.23345,0.0778 -0.30191,0.41196 -0.52201,0.52201 -0.31126,0.15563 -0.73275,-0.15563 -1.04401,0 -0.2201,0.11005 -0.30191,0.41196 -0.522,0.522 -0.15887,0.0794 -1.33093,0 -1.56602,0"
       style="fill:none;stroke:#ffa60c;stroke-width:2;stroke-linecap:butt;stroke-linejoin:miter;stroke-miterlimit:4;stroke-opacity:1;stroke-dasharray:none" />
  </g>
</svg>
