<?xml version="1.0" encoding="utf-8"?><!-- Created with Inkscape (http://www.inkscape.org/) --><svg height="94" id="svg2" inkscape:export-filename="/home/ix/preshack/dist/job/swap_opaque.png" inkscape:export-xdpi="67.021278" inkscape:export-ydpi="67.021278" inkscape:version="0.48.3.1 r9886" sodipodi:docname="swap.svg" version="1.1" width="270" xmlns="http://www.w3.org/2000/svg" xmlns:cc="http://creativecommons.org/ns#" xmlns:dc="http://purl.org/dc/elements/1.1/" xmlns:inkscape="http://www.inkscape.org/namespaces/inkscape" xmlns:rdf="http://www.w3.org/1999/02/22-rdf-syntax-ns#" xmlns:sodipodi="http://sodipodi.sourceforge.net/DTD/sodipodi-0.dtd" xmlns:svg="http://www.w3.org/2000/svg">
  <defs id="defs4">
    <inkscape:perspective id="perspective10" inkscape:persp3d-origin="372.04724 : 350.78739 : 1" inkscape:vp_x="0 : 526.18109 : 1" inkscape:vp_y="0 : 1000 : 0" inkscape:vp_z="744.09448 : 526.18109 : 1" sodipodi:type="inkscape:persp3d"/>
    <inkscape:perspective id="perspective2838" inkscape:persp3d-origin="0.5 : 0.33333333 : 1" inkscape:vp_x="0 : 0.5 : 1" inkscape:vp_y="0 : 1000 : 0" inkscape:vp_z="1 : 0.5 : 1" sodipodi:type="inkscape:persp3d"/>
  </defs>
  <sodipodi:namedview bordercolor="#666666" borderopacity="1.0" id="base" inkscape:current-layer="layer1" inkscape:cx="520.39173" inkscape:cy="152.64734" inkscape:document-units="px" inkscape:pageopacity="0" inkscape:pageshadow="2" inkscape:window-height="1005" inkscape:window-maximized="0" inkscape:window-width="1470" inkscape:window-x="79" inkscape:window-y="48" inkscape:zoom="1.4" pagecolor="#000000" showgrid="false"/>
  <metadata id="metadata7">
    <rdf:RDF>
      <cc:Work rdf:about="">
        <dc:format>image/svg+xml</dc:format>
        <dc:type rdf:resource="http://purl.org/dc/dcmitype/StillImage"/>
        <dc:title/>
      </cc:Work>
    </rdf:RDF>
  </metadata>
  <g id="layer1" inkscape:groupmode="layer" inkscape:label="Layer 1" transform="translate(-140.37059,-128.78042)">
    <g id="g4833">
      <title id="title4875">opaque</title>
      <path d="m 16.165179,91.4375 66.1875,0 c 32.362361,0 48.381541,-9.47775 66.218751,-18.46875 L 135,18.5 c -17.45196,8.965691 -33.19092,18.375 -66.21875,18.375 l -66.1875,0 z" id="path2814" inkscape:connector-curvature="0" sodipodi:nodetypes="csccscc" style="color:#000000;fill:#0c00c3;fill-opacity:1;fill-rule:evenodd;stroke:none;stroke-width:2;marker:none;visibility:visible;display:inline;overflow:visible;enable-background:accumulate" transform="translate(140.37059,128.78042)"/>
      <path d="m 135,18.5 c -17.45196,8.965691 -33.19092,18.375 -66.21875,18.375 l -66.1875,0 13.571429,54.5625 66.1875,0 c 32.362361,0 48.381541,-9.47775 66.218751,-18.46875" id="path2853" inkscape:connector-curvature="0" sodipodi:nodetypes="cccccc" style="color:#000000;fill:none;stroke:#000000;stroke-width:2;stroke-linecap:butt;stroke-linejoin:miter;stroke-miterlimit:4.19999981;stroke-opacity:1;stroke-dasharray:none;stroke-dashoffset:0;marker:none;visibility:visible;display:inline;overflow:visible;enable-background:accumulate" transform="translate(140.37059,128.78042)"/>
      <path d="m 142.9601,131.35473 66.20525,0 c 69.46395,0 69.37227,34.30314 132.41049,34.30314 l 66.20524,0 13.57143,54.54824 -66.20524,0 c -61.57401,0 -63.87371,-34.30314 -132.41049,-34.30314 l -66.20525,0 z" id="rect2816" inkscape:connector-curvature="0" sodipodi:nodetypes="ccccccccc" style="color:#000000;fill:#ca0000;fill-opacity:1;fill-rule:evenodd;stroke:#000000;stroke-width:2;stroke-linecap:butt;stroke-linejoin:miter;stroke-miterlimit:4.19999981;stroke-opacity:1;stroke-dasharray:none;stroke-dashoffset:0;marker:none;visibility:visible;display:inline;overflow:visible;enable-background:accumulate"/>
      <path d="M 201.21875,2.5625 C 168.14929,2.5625 150.85754,10.353419 135,18.5 l 13.57143,54.46875 C 164.67206,64.853088 182.27528,57.125 214.79018,57.125 l 66.1875,0 -13.57143,-54.5625 z" id="path2819" inkscape:connector-curvature="0" sodipodi:nodetypes="sccsccs" style="color:#000000;fill:#0c00c3;fill-opacity:1;fill-rule:evenodd;stroke:none;stroke-width:2;marker:none;visibility:visible;display:inline;overflow:visible;enable-background:accumulate" transform="translate(140.37059,128.78042)"/>
      <path d="M 148.57143,72.96875 C 164.67206,64.853088 182.27528,57.125 214.79018,57.125 l 66.1875,0 -13.57143,-54.5625 -66.1875,0 C 168.14929,2.5625 150.85754,10.353419 135,18.5" id="path2851" inkscape:connector-curvature="0" sodipodi:nodetypes="cccccc" style="color:#000000;fill:none;stroke:#000000;stroke-width:2;stroke-linecap:butt;stroke-linejoin:miter;stroke-miterlimit:4.19999981;stroke-opacity:1;stroke-dasharray:none;stroke-dashoffset:0;marker:none;visibility:visible;display:inline;overflow:visible;enable-background:accumulate" transform="translate(140.37059,128.78042)"/>
      <path d="m 142.9601,131.35473 66.20525,0 c 69.46395,0 69.37227,34.30314 132.41049,34.30314 l 66.20524,0 13.57143,54.54824 -66.20524,0 c -61.57401,0 -63.87371,-34.30314 -132.41049,-34.30314 l -66.20525,0 z" id="path3819" inkscape:connector-curvature="0" sodipodi:nodetypes="ccccccccc" style="color:#000000;fill:none;fill-opacity:1;fill-rule:evenodd;stroke:#000000;stroke-width:2;stroke-linecap:butt;stroke-linejoin:miter;stroke-miterlimit:4.19999980999999956;stroke-opacity:1;stroke-dasharray:2, 2;stroke-dashoffset:0;marker:none;visibility:visible;display:inline;overflow:visible;enable-background:accumulate"/>
      <path d="m 135,18.5 c -17.45196,8.965691 -33.19092,18.375 -66.21875,18.375 l -66.1875,0 13.571429,54.5625 66.1875,0 c 32.362361,0 48.381541,-9.47775 66.218751,-18.46875" id="path3854" inkscape:connector-curvature="0" sodipodi:nodetypes="cccccc" style="color:#000000;fill:none;stroke:#000000;stroke-width:2;stroke-linecap:butt;stroke-linejoin:miter;stroke-miterlimit:4.19999980999999956;stroke-opacity:1;stroke-dasharray:2, 2;stroke-dashoffset:0;marker:none;visibility:visible;display:inline;overflow:visible;enable-background:accumulate" transform="translate(140.37059,128.78042)"/>
    </g>
    <g id="g4842" style="visibility:hidden;display:none">
      <title id="title4877">transp</title>
      <path d="M 430.25 31.46875 C 420.2604 34.716206 408.38843 36.875 392.53125 36.875 L 326.34375 36.875 L 339.90625 91.4375 L 406.09375 91.4375 C 421.79222 91.4375 433.63861 89.197973 443.71875 85.875 L 430.25 31.46875 z " id="path3821" style="color:#000000;fill:#0c00c3;fill-opacity:1;fill-rule:evenodd;stroke:none;stroke-width:2;marker:none;visibility:visible;display:inline;overflow:visible;enable-background:accumulate" transform="translate(140.37059,128.78042)"/>
      <path d="M 430.25 31.46875 C 420.2604 34.716206 408.38843 36.875 392.53125 36.875 L 326.34375 36.875 L 339.90625 91.4375 L 406.09375 91.4375 C 421.79222 91.4375 433.63861 89.197973 443.71875 85.875 L 430.25 31.46875 z " id="path3893" style="color:#000000;fill:none;fill-opacity:1;fill-rule:evenodd;stroke:#000000;stroke-width:2;marker:none;visibility:visible;display:inline;overflow:visible;enable-background:accumulate;stroke-linecap:butt;stroke-linejoin:miter;stroke-miterlimit:4.19999980999999956;stroke-opacity:1;stroke-dasharray:none;stroke-dashoffset:0" transform="translate(140.37059,128.78042)"/>
      <path d="m 466.71399,131.35473 66.20525,0 c 69.46395,0 69.37227,34.30314 132.41049,34.30314 l 66.20524,0 13.57143,54.54824 -66.20524,0 c -61.57401,0 -63.87371,-34.30314 -132.41049,-34.30314 l -66.20525,0 z" id="path3825" inkscape:connector-curvature="0" sodipodi:nodetypes="ccccccccc" style="color:#000000;fill:#ca0000;fill-opacity:1;fill-rule:evenodd;stroke:#000000;stroke-width:2;stroke-linecap:butt;stroke-linejoin:miter;stroke-miterlimit:4.19999981;stroke-opacity:1;stroke-dasharray:none;stroke-dashoffset:0;marker:none;visibility:visible;display:inline;overflow:visible;enable-background:accumulate"/>
      <path d="M 524.96875 2.5625 C 509.10667 2.5625 496.90368 4.3605673 486.71875 7.125 L 500.21875 61.75 C 510.50896 58.947301 522.74676 57.125 538.53125 57.125 L 604.71875 57.125 L 591.15625 2.5625 L 524.96875 2.5625 z " id="path3827" style="color:#000000;fill:#0c00c3;fill-opacity:1;fill-rule:evenodd;stroke:none;stroke-width:2;marker:none;visibility:visible;display:inline;overflow:visible;enable-background:accumulate" transform="translate(140.37059,128.78042)"/>
      <path d="m 466.71399,131.35473 66.20525,0 c 69.46395,0 69.37227,34.30314 132.41049,34.30314 l 66.20524,0 13.57143,54.54824 -66.20524,0 c -61.57401,0 -63.87371,-34.30314 -132.41049,-34.30314 l -66.20525,0 z" id="path3831" inkscape:connector-curvature="0" sodipodi:nodetypes="ccccccccc" style="color:#000000;fill:none;stroke:#000000;stroke-width:2;stroke-linecap:butt;stroke-linejoin:miter;stroke-miterlimit:4.19999981;stroke-opacity:1;stroke-dasharray:2, 2;stroke-dashoffset:0;marker:none;visibility:visible;display:inline;overflow:visible;enable-background:accumulate"/>
      <path d="M 524.96875 2.5625 C 509.10667 2.5625 496.90368 4.3605673 486.71875 7.125 L 500.21875 61.75 C 510.50896 58.947301 522.74676 57.125 538.53125 57.125 L 604.71875 57.125 L 591.15625 2.5625 L 524.96875 2.5625 z " id="path3885" style="color:#000000;fill:none;fill-opacity:1;fill-rule:evenodd;stroke:#000000;stroke-width:2;marker:none;visibility:visible;display:inline;overflow:visible;enable-background:accumulate;stroke-linecap:butt;stroke-linejoin:miter;stroke-miterlimit:4.19999980999999956;stroke-opacity:1;stroke-dasharray:none;stroke-dashoffset:0" transform="translate(140.37059,128.78042)"/>
      <path d="M 430.25 31.46875 C 420.2604 34.716206 408.38843 36.875 392.53125 36.875 L 326.34375 36.875 L 339.90625 91.4375 L 406.09375 91.4375 C 421.79222 91.4375 433.63861 89.197973 443.71875 85.875 L 430.25 31.46875 z " id="path3920" style="color:#000000;fill:none;fill-opacity:1;fill-rule:evenodd;stroke:#000000;stroke-width:2;marker:none;visibility:visible;display:inline;overflow:visible;enable-background:accumulate;stroke-linecap:butt;stroke-linejoin:miter;stroke-miterlimit:4.19999980999999956;stroke-opacity:1;stroke-dasharray:2, 2;stroke-dashoffset:0" transform="translate(140.37059,128.78042)"/>
    </g>
    <g id="g4851" style="visibility:hidden;display:none">
      <title id="title4879">one</title>
      <path d="m 816.66657,220.21792 66.1875,0 c 32.36236,0 48.38154,-9.47775 66.21875,-18.46875 l -13.57143,-54.46875 c -17.45196,8.96569 -33.19092,18.375 -66.21875,18.375 l -66.1875,0 z" id="path3942" inkscape:connector-curvature="0" sodipodi:nodetypes="csccscc" style="color:#000000;fill:#0c00c3;fill-opacity:0.53846157;fill-rule:evenodd;stroke:none;stroke-width:2;marker:none;visibility:visible;display:inline;overflow:visible;enable-background:accumulate"/>
      <path d="m 935.50139,147.28042 c -17.45196,8.96569 -33.19092,18.375 -66.21875,18.375 l -66.1875,0 13.57143,54.5625 66.1875,0 c 32.36236,0 48.38154,-9.47775 66.21875,-18.46875" id="path3965" inkscape:connector-curvature="0" sodipodi:nodetypes="csccsc" style="color:#000000;fill:none;stroke:#000000;stroke-width:2;stroke-linecap:butt;stroke-linejoin:miter;stroke-miterlimit:4.19999981;stroke-opacity:1;stroke-dasharray:none;stroke-dashoffset:0;marker:none;visibility:visible;display:inline;overflow:visible;enable-background:accumulate"/>
      <path d="m 803.09479,131.35473 66.20525,0 c 69.46395,0 69.37227,34.30314 132.41046,34.30314 l 66.2053,0 13.5714,54.54824 -66.2052,0 c -61.57405,0 -63.87375,-34.30314 -132.41053,-34.30314 l -66.20525,0 z" id="path3932" inkscape:connector-curvature="0" sodipodi:nodetypes="ccccccccc" style="color:#000000;fill:#ca0000;fill-opacity:1;fill-rule:evenodd;stroke:#000000;stroke-width:2;stroke-linecap:butt;stroke-linejoin:miter;stroke-miterlimit:4.19999981;stroke-opacity:1;stroke-dasharray:none;stroke-dashoffset:0;marker:none;visibility:visible;display:inline;overflow:visible;enable-background:accumulate"/>
      <path d="m 1001.7112,131.34292 c -33.06949,0 -50.36124,7.79092 -66.21878,15.9375 l 13.57143,54.46875 c 16.10063,-8.11566 33.70385,-15.84375 66.21875,-15.84375 l 66.1875,0 -13.5714,-54.5625 z" id="path3944" inkscape:connector-curvature="0" sodipodi:nodetypes="sccsccs" style="color:#000000;fill:#0c00c3;fill-opacity:0.53846157;fill-rule:evenodd;stroke:none;stroke-width:2;marker:none;visibility:visible;display:inline;overflow:visible;enable-background:accumulate"/>
      <path d="m 803.09479,131.35473 66.20525,0 c 69.46395,0 69.37227,34.30314 132.41046,34.30314 l 66.2053,0 13.5714,54.54824 -66.2052,0 c -61.57405,0 -63.87375,-34.30314 -132.41053,-34.30314 l -66.20525,0 z" id="path3936" inkscape:connector-curvature="0" sodipodi:nodetypes="ccccccccc" style="color:#000000;fill:none;stroke:#000000;stroke-width:2;stroke-linecap:butt;stroke-linejoin:miter;stroke-miterlimit:4.19999981;stroke-opacity:1;stroke-dasharray:2, 2;stroke-dashoffset:0;marker:none;visibility:visible;display:inline;overflow:visible;enable-background:accumulate"/>
      <path d="m 949.06385,201.74917 c 16.10063,-8.11566 33.70385,-15.84375 66.21875,-15.84375 l 66.1875,0 -13.5714,-54.5625 -66.1875,0 c -33.06949,0 -50.36124,7.79092 -66.21878,15.9375" id="path3957" inkscape:connector-curvature="0" sodipodi:nodetypes="csccsc" style="color:#000000;fill:none;stroke:#000000;stroke-width:2;stroke-linecap:butt;stroke-linejoin:miter;stroke-miterlimit:4.19999981;stroke-opacity:1;stroke-dasharray:none;stroke-dashoffset:0;marker:none;visibility:visible;display:inline;overflow:visible;enable-background:accumulate"/>
      <path d="m 935.50139,147.28042 c -17.45196,8.96569 -33.19092,18.375 -66.21875,18.375 l -66.1875,0 13.57143,54.5625 66.1875,0 c 32.36236,0 48.38154,-9.47775 66.21875,-18.46875" id="path3973" inkscape:connector-curvature="0" sodipodi:nodetypes="csccsc" style="color:#000000;fill:none;stroke:#000000;stroke-width:2;stroke-linecap:butt;stroke-linejoin:miter;stroke-miterlimit:4.19999980999999956;stroke-opacity:1;stroke-dasharray:2, 2;stroke-dashoffset:0;marker:none;visibility:visible;display:inline;overflow:visible;enable-background:accumulate"/>
    </g>
    <g id="g4860" style="visibility:hidden;display:none">
      <title id="title4881">both</title>
      <path d="m 816.66657,66.646492 66.1875,0 c 32.36236,0 48.38154,-9.47775 66.21875,-18.46875 L 935.50139,-6.2910085 c -17.45196,8.96569 -33.19092,18.3750005 -66.21875,18.3750005 l -66.1875,0 z" id="path3992" inkscape:connector-curvature="0" sodipodi:nodetypes="csccscc" style="color:#000000;fill:#0c00c3;fill-opacity:0.53725493;fill-rule:evenodd;stroke:none;stroke-width:2;marker:none;visibility:visible;display:inline;overflow:visible;enable-background:accumulate"/>
      <path d="m 935.50139,-6.2910085 c -17.45196,8.96569 -33.19092,18.3750005 -66.21875,18.3750005 l -66.1875,0 13.57143,54.5625 66.1875,0 c 32.36236,0 48.38154,-9.47775 66.21875,-18.46875" id="path3994" inkscape:connector-curvature="0" sodipodi:nodetypes="csccsc" style="color:#000000;fill:none;stroke:#000000;stroke-width:2;stroke-linecap:butt;stroke-linejoin:miter;stroke-miterlimit:4.19999981;stroke-opacity:1;stroke-dasharray:none;stroke-dashoffset:0;marker:none;visibility:visible;display:inline;overflow:visible;enable-background:accumulate"/>
      <path d="m 803.09479,-22.216698 66.20525,0 c 69.46395,0 69.37227,34.30314 132.41046,34.30314 l 66.2053,0 13.5714,54.54824 -66.2052,0 c -61.57405,0 -63.87375,-34.30314 -132.41053,-34.30314 l -66.20525,0 z" id="path3996" inkscape:connector-curvature="0" sodipodi:nodetypes="ccccccccc" style="color:#000000;fill:#ca0000;fill-opacity:0.53725493;fill-rule:evenodd;stroke:#000000;stroke-width:2;stroke-linecap:butt;stroke-linejoin:miter;stroke-miterlimit:4.19999980999999956;stroke-opacity:1;stroke-dasharray:none;stroke-dashoffset:0;marker:none;visibility:visible;display:inline;overflow:visible;enable-background:accumulate"/>
      <path d="m 1001.7112,-22.228508 c -33.06949,0 -50.36124,7.79092 -66.21878,15.9374995 l 13.57143,54.4687505 c 16.10063,-8.11566 33.70385,-15.84375 66.21875,-15.84375 l 66.1875,0 -13.5714,-54.5625 z" id="path3998" inkscape:connector-curvature="0" sodipodi:nodetypes="sccsccs" style="color:#000000;fill:#0c00c3;fill-opacity:0.53725493;fill-rule:evenodd;stroke:none;stroke-width:2;marker:none;visibility:visible;display:inline;overflow:visible;enable-background:accumulate"/>
      <path d="m 803.09479,-22.216698 66.20525,0 c 69.46395,0 69.37227,34.30314 132.41046,34.30314 l 66.2053,0 13.5714,54.54824 -66.2052,0 c -61.57405,0 -63.87375,-34.30314 -132.41053,-34.30314 l -66.20525,0 z" id="path4000" inkscape:connector-curvature="0" sodipodi:nodetypes="ccccccccc" style="color:#000000;fill:none;stroke:#000000;stroke-width:2;stroke-linecap:butt;stroke-linejoin:miter;stroke-miterlimit:4.19999981;stroke-opacity:1;stroke-dasharray:2, 2;stroke-dashoffset:0;marker:none;visibility:visible;display:inline;overflow:visible;enable-background:accumulate"/>
      <path d="m 949.06385,48.177742 c 16.10063,-8.11566 33.70385,-15.84375 66.21875,-15.84375 l 66.1875,0 -13.5714,-54.5625 -66.1875,0 c -33.06949,0 -50.36124,7.79092 -66.21878,15.9374995" id="path4002" inkscape:connector-curvature="0" sodipodi:nodetypes="csccsc" style="color:#000000;fill:none;stroke:#000000;stroke-width:2;stroke-linecap:butt;stroke-linejoin:miter;stroke-miterlimit:4.19999981;stroke-opacity:1;stroke-dasharray:none;stroke-dashoffset:0;marker:none;visibility:visible;display:inline;overflow:visible;enable-background:accumulate"/>
      <path d="m 935.50139,-6.2910085 c -17.45196,8.96569 -33.19092,18.3750005 -66.21875,18.3750005 l -66.1875,0 13.57143,54.5625 66.1875,0 c 32.36236,0 48.38154,-9.47775 66.21875,-18.46875" id="path4004" inkscape:connector-curvature="0" sodipodi:nodetypes="csccsc" style="color:#000000;fill:none;stroke:#000000;stroke-width:2;stroke-linecap:butt;stroke-linejoin:miter;stroke-miterlimit:4.19999981;stroke-opacity:1;stroke-dasharray:2, 2;stroke-dashoffset:0;marker:none;visibility:visible;display:inline;overflow:visible;enable-background:accumulate"/>
    </g>
  </g>
</svg>